
<svg id="Layer_1" data-name="Layer 1" xmlns="http://www.w3.org/2000/svg" xmlns:xlink="http://www.w3.org/1999/xlink" viewBox="0 0 532.65 480.61">
  <defs>
    <style>
      .cls-1 {
        fill: url(#radial-gradient-2);
      }

      .cls-1, .cls-2 {
        opacity: .64;
      }

      .cls-3 {
        fill: #fa3eff;
      }

      .cls-4 {
        fill: none;
      }

      .cls-2 {
        fill: url(#radial-gradient);
      }
    </style>
    <radialGradient id="radial-gradient" cx="266.67" cy="240.84" fx="266.67" fy="240.84" r="253.06" gradientTransform="translate(0 -.82)" gradientUnits="userSpaceOnUse">
      <stop offset=".89" stop-color="#fff"/>
      <stop offset=".91" stop-color="#c5e4f7"/>
      <stop offset=".92" stop-color="#91cdf0"/>
      <stop offset=".93" stop-color="#64b9eb"/>
      <stop offset=".95" stop-color="#40a9e6"/>
      <stop offset=".96" stop-color="#249ce2"/>
      <stop offset=".97" stop-color="#1093e0"/>
      <stop offset=".99" stop-color="#048dde"/>
      <stop offset="1" stop-color="#008cde"/>
      <stop offset="1" stop-color="#00a0de"/>
      <stop offset="1" stop-color="#00c2de"/>
      <stop offset="1" stop-color="#00dcde"/>
      <stop offset="1" stop-color="#00efde"/>
      <stop offset="1" stop-color="#00fbde"/>
      <stop offset="1" stop-color="#00ffde"/>
    </radialGradient>
    <radialGradient id="radial-gradient-2" cx="265.68" cy="239.77" fx="265.68" fy="239.77" r="253.06" gradientUnits="userSpaceOnUse">
      <stop offset=".16" stop-color="#96ffff"/>
      <stop offset=".16" stop-color="#90fffd"/>
      <stop offset=".22" stop-color="#64fff4"/>
      <stop offset=".27" stop-color="#40ffec"/>
      <stop offset=".32" stop-color="#24ffe5"/>
      <stop offset=".38" stop-color="#10ffe1"/>
      <stop offset=".43" stop-color="#04ffde"/>
      <stop offset=".48" stop-color="#00ffde"/>
      <stop offset=".5" stop-color="#00ffde"/>
      <stop offset="1" stop-color="#00ffde"/>
    </radialGradient>
  </defs>
  <ellipse class="cls-2" cx="266.82" cy="240.38" rx="265.83" ry="240.23"/>
  <ellipse class="cls-1" cx="265.68" cy="239.77" rx="265.68" ry="239.77"/>
  <g>
    <path d="m152.88,178.37c-2.26-2.97-4.26-5.51-6.18-8.11-1.87-2.54-1.86-5.42-.14-7.71,1.54-2.05,3.7-2.51,6.09-2.48,15.89.23,31.79.47,47.68.69,9.16.13,18.32.23,27.48.34.34,0,.68-.06,1.43-.12-2.33-3.08-1.04-5.78.26-8.63,1.08-2.37,1.63-4.99,2.51-7.46.23-.63.78-1.56,1.27-1.61,3.77-.43,7.64-1.33,11.33-.86,7.57.96,11.03,8.54,7.85,16.15-.34.81-.71,1.61-1.17,2.66,1.35.07,2.42.13,3.5.18,1.09-5.18,2.22-10.17,3.17-15.19.37-1.94,1.16-2.6,3.19-2.49,1.65.09,3.45-.23,5.01-.84,4.97-1.93,10.49.01,12.95,4.76,1.92,3.71,2.65,7.71,2.88,11.83.04.68.11,1.35.19,2.18.93.04,1.73.08,2.81.14-.47-.93-.84-1.58-1.14-2.26-.72-1.67-.69-3.24.05-5,1.31-3.11,2.28-6.37,3.48-9.53.26-.69.85-1.7,1.38-1.76,3.7-.45,7.49-1.27,11.13-.88,6.76.73,10.36,6.7,8.71,13.68-.47,1.98-1.41,3.85-2.3,6.2,3.91,0,7.63,0,11.35,0,.26,0,.7-.05.77-.21.92-2.19,2.97-2.74,4.9-3.48.24-.09.49-.34.58-.57,1.18-2.93,1.49-5.92.68-9.34-2.06,1.35-2.01,3.39-2.68,5.03-.1.25-.1.54-.13.82-.46,4.16-1.08,4.77-5.22,5.18-3.24.32-5.63-2.44-4.74-5.6.96-3.4,1.99-6.78,3.1-10.13.2-.61.92-1.49,1.4-1.49,4.07.01,8.25-.34,12.18.47,5.81,1.19,8.18,5.77,6.82,11.97-.38,1.73-1.18,3.39-1.98,5-.85,1.72-.37,2.61,1.72,2.65,5.55.09,11.11.14,16.66.21,19.43.25,38.87.5,58.3.75.49,0,.97.02,1.46.03,2.82.07,5.24.92,6.44,3.71,1.17,2.71.49,5.12-1.44,7.29-.99,1.11-1.86,2.34-3.07,3.86,1.18,0,1.91,0,2.64,0,15.41,0,30.82,0,46.23,0,5,0,6.36,1.38,6.36,6.45,0,22.98,0,45.96,0,68.94,0,4.77-1.44,6.23-6.18,6.23-37.14,0-74.28.07-111.42-.11-3.84-.02-6.07,1.31-7.63,4.31,1.44.27,3.24.13,4.3.95,1.09.84,1.93,2.57,2.06,3.99.27,2.9-1.74,5.14-4.17,5.28-3.47.21-5.22-1.42-5.93-5.84-1.45,1.78-2.74,3.36-4.04,4.95-4.04,4.94-8.05,9.91-12.15,14.8-1,1.19-1.11,2.21-.36,3.54,1.63,2.89,3.17,5.83,4.97,9.16,2.51-3.9,6.29-6.49,6.97-11.38.46-3.25,1.66-6.43,2.85-9.52,1.2-3.13,5.34-5.07,8.58-4.37,2.21.47,3.27,1.52,3.03,3.75-.38,3.58-1.13,7.12-1.66,10.68-.53,3.57-1.07,7.14-1.42,10.72-.14,1.46.19,2.97.35,5.11,1.17-.94,1.98-1.34,2.44-1.99,3.27-4.72,6.5-9.47,9.67-14.26.39-.6.41-1.45.57-2.19,1.99-9.36,6.98-16.68,15.18-21.63,1.9-1.15,4.23-1.89,6.43-2.15,7.29-.84,10.54,6.16,9.24,11.3-.19.75-1.21,1.8-1.87,1.81-.92.02-2.18-.57-2.72-1.31-.77-1.06-1.03-2.5-1.72-4.35-2.08,1.28-4.2,2.21-5.83,3.68-4.81,4.3-7.21,9.92-8.07,16.24-.09.68-.08,1.39-.02,2.08.42,5.11,3.7,7.04,8.4,5,5.23-2.27,8.9-6.34,12.18-10.76,2.51-3.39,4.72-7.01,7.01-10.56,1.36-2.12,2.94-3.14,4.25-2.58,1.41.6,2.08,2.68,1.26,5-.62,1.75-1.59,3.38-2.52,5-3.03,5.28-6.68,10.12-11.39,13.97-2.71,2.22-5.69,4.28-8.85,5.76-8.29,3.89-14.09,2.43-19.98-4.72-.46.62-.88,1.2-1.33,1.75-2.81,3.52-5.43,7.23-8.53,10.47-1.48,1.55-3.77,2.72-5.89,3.19-4.23.94-8.02-1.57-9.35-5.75-.62-1.96-.97-4.01-1.45-6.04-3.26,2.42-3.63,3.54-2.6,7.31,1.93,7.07,3.43,14.17,1.7,21.54-1.47,6.24-4.31,11.77-8.95,16.17-3.55,3.36-7.67,5.81-12.96,4.62-.54-.12-1.16-.21-1.56-.54-2.06-1.66-3.33-.96-4.8,1-2.16,2.89-5.2,4.77-8.63,5.93-5,1.69-9.93-.31-12.29-5.02-2.29-4.56-2.18-9.22-.34-13.9.53-1.35,1.12-2.68,1.84-4.41-.75.61-1.22,1-1.71,1.38-3.1,2.4-7.43,1.54-9.61-1.74-1.68-2.52-3.56-4.91-5.56-7.66-.69.97-1.13,1.64-1.61,2.28-2.3,3.03-4.42,6.23-6.98,9.02-2.22,2.43-5.21,3.6-8.5,2.18-1.33-.57-2.41-1.75-3.78-2.78-.63.97-1.27,2.09-2.05,3.12-1.29,1.71-2.49,3.55-4.05,5-4.04,3.76-9.66,3.02-12.76-1.57-.88-1.31-1.54-2.77-2.46-4.46-.54.71-1.04,1.3-1.47,1.94-7.1,10.63-14.4,21.11-22.92,30.67-4.48,5.03-9.7,9.16-15.94,11.8-6.93,2.92-13.8,3.22-20.16-1.46-4.5-3.31-7.17-8.02-9.06-13.18-3.77-10.32-4.56-20.95-3.22-31.78,1.63-13.2,4.54-26.09,10.1-38.25,7.07-15.47,17.01-28.7,30.85-38.8.48-.35.94-.73,1.85-1.42h-2.72c-28.81,0-57.61,0-86.42,0-4.81,0-6.24-1.41-6.24-6.15,0-23.12,0-46.24,0-69.36,0-4.65,1.45-6.12,6.06-6.12,14.37,0,28.74,0,43.11,0,.76,0,1.52,0,2.84,0Zm122.79,124.15c-7.18-2.15-13.15.41-18.54,4.78-6.16,4.99-9.18,11.67-9.9,19.48-.06.62,0,1.34-.28,1.83-2.35,4-4.75,7.96-7.2,11.9-.35.57-.94,1.03-1.51,1.41-1.21.79-2.34.63-2.83-.82-.44-1.29-.91-2.7-.83-4.03.35-5.95.62-11.92,1.4-17.81,2.29-17.26,5.78-34.3,9.91-51.21.58-2.37-.73-3.78-3.21-3.22-3.29.74-5.85,2.47-6.89,5.92-4.88,16.2-7.97,32.75-8.95,49.62-.34,5.88-1.73,10.89-5.06,15.79-7.34,10.79-14.39,21.77-23.42,31.29-3.61,3.8-7.62,7.11-12.54,9.1-7.3,2.94-13.88.46-17.52-6.54-2.19-4.21-3.16-8.75-3.28-13.43-.53-21.22,4.18-41.3,13.67-60.22,6.13-12.22,14.58-22.59,25.94-30.4,4.64-3.19,9.44-6.14,15.01-7.42,5.32-1.22,8.79,1.27,8.69,6.71-.07,4.12-.52,8.34-1.56,12.31-3.49,13.27-10.01,25.2-17.1,36.83-.43.71-1.13,1.37-1.25,2.13-.12.76.31,1.62.51,2.44.72-.2,1.55-.23,2.12-.63.65-.46,1.1-1.24,1.59-1.91,8.68-12,14.44-25.39,18.58-39.51,1.5-5.13,2.5-10.38,1.69-15.81-.84-5.59-4.47-8.99-10.12-9.02-2.34-.02-4.71.3-7.01.74-10.74,2.04-19.62,7.71-27.35,15.04-25.59,24.29-35.72,54.6-33.69,89.31.42,7.09,2.65,13.91,6.69,19.91,3.72,5.54,8.7,9.06,15.69,8.23,2.78-.33,5.58-1.15,8.16-2.26,6.83-2.93,12.52-7.56,16.99-13.41,7.78-10.2,15.21-20.66,22.79-31.01.47-.64.9-1.32,1.55-2.27.25.91.33,1.46.54,1.95.88,2.09,1.52,4.36,2.77,6.21,2.22,3.29,5.66,3.88,8.87,1.58,1.66-1.19,3.11-2.77,4.34-4.41,1.69-2.25,3.08-4.73,4.7-7.28.26.72.47,1.3.68,1.87,1.49,4.07,4.37,5.23,7.97,2.76,2.18-1.5,4.25-3.44,5.73-5.63,3.69-5.45,7-11.16,10.48-16.75.36-.59.78-1.14,1.43-2.06-.23,2.29-.61,4.09-.54,5.87.17,4.27.23,8.59.93,12.79.56,3.37,3.36,4.29,6.36,2.61.78-.44,1.48-1.02,2.19-1.58,5.32-4.24,8.89-9.86,12.24-15.65.81-1.4,1.6-2.81,2.45-4.31q2.02,3.04.11,5.53c-1.14,1.48-2.34,2.93-3.46,4.43-4.14,5.57-8.21,11.2-10.36,17.92-1.29,4.03-1,7.97,1.04,11.68,2.03,3.7,5.55,5.01,9.56,3.7,4.23-1.38,7.58-3.97,10.21-7.54.47-.64.95-1.29,1.44-1.96,3.69,3.72,6.47,4.32,10.99,2.08,2.08-1.03,4.2-2.29,5.81-3.94,5.87-6.04,9.33-13.24,9.32-21.81,0-5.81-1.48-11.38-3.19-16.9-.2-.66-.42-1.65-.09-2.09,1.8-2.42,3.77-4.72,5.99-7.45.05,1.11.04,1.71.12,2.3.36,2.74.48,5.55,1.19,8.2,1.17,4.34,5.07,6.14,9.16,4.24,1.77-.82,3.54-2.07,4.77-3.56,3.22-3.89,6.16-8.03,9.2-12.07.34-.45.65-.91,1.05-1.49,2.66,7.82,7.56,10.38,15.27,8.2,4.14-1.17,7.78-3.27,11.08-5.98,6.11-5.01,10.64-11.28,14.35-18.19.7-1.3,2.03-3.02.23-3.99-1.62-.86-2.3,1.21-3.12,2.34-3.65,5.05-7.14,10.23-10.98,15.13-2.46,3.14-5.81,5.35-9.67,6.61-4.39,1.44-7.98-.48-8.68-5-1.21-7.81,1.72-14.44,6.71-20.23,1.28-1.48,3.03-2.68,4.78-3.59,3.04-1.58,4.86-1.85,5.47,2.44.04.27.05.6.21.8.44.57.95,1.09,1.43,1.63.5-.6,1.27-1.12,1.47-1.81,1.33-4.73-2.85-9.8-7.71-9.04-2.53.39-5.19,1.3-7.31,2.71-6.8,4.49-11.15,10.89-13.24,18.78-.3,1.13-.12,2.53-.72,3.43-3.51,5.32-7.13,10.55-10.84,15.73-.46.64-1.79,1.18-2.48.97-.67-.2-1.41-1.42-1.44-2.21-.11-2.89-.19-5.83.2-8.68.68-5.08,1.7-10.11,2.58-15.16.41-2.37-.03-3.21-1.91-3.62-2.39-.52-6.15,1.05-7.05,3.32-1.19,3.01-2.07,6.15-2.98,9.27-.39,1.32-.14,2.99-.86,4.02-2.33,3.32-4.98,6.41-7.59,9.7-2.09-3.96-4.01-7.55-5.89-11.17-.44-.86-.76-1.78-1.07-2.7-.9-2.74-.65-5.18,1.83-7.1.43-.33.51-1.12.75-1.69-.64-.13-1.34-.5-1.92-.35-4.04,1.01-7.24,3.24-8.04,7.5-.49,2.65-.71,5.68.1,8.17,1.06,3.25.69,5.54-1.65,7.9-1.81,1.83-3.29,3.98-4.95,6.03-1.83-3.39-3.52-6.4-5.08-9.48-.78-1.54-1.39-3.17-1.95-4.8-.89-2.56-.35-4.75,1.83-6.51.46-.37.63-1.12.93-1.69-.7-.16-1.46-.58-2.08-.42-4.12,1.05-7.07,3.41-8.12,7.74-1.28,5.27.46,9.97,2.59,14.64.34.75.53,1.95.17,2.59-2.56,4.61-5.17,9.19-7.99,13.63-1.13,1.79-2.72,3.33-4.29,4.78-1.4,1.3-2.48.94-2.71-.94-.26-2.04-.25-4.15-.09-6.21.69-8.68,2.78-17.08,5.22-25.41.42-1.42,1.23-3.18-.61-4.07-1.72-.83-3.01.49-4.08,1.73-.77.89-1.42,1.89-2.09,2.85-.98,1.42-1.94,2.85-2.94,4.33Zm146.58-76.73c-3.55-.2-8.73,4.81-10.24,9-1.11,3.06.13,4.57,3.36,4.12,4.17-.59,7.4-3.02,10.51-5.58,1.31-1.07,2.7-2.29,3.45-3.74,2.68-5.16,4.93-10.55,7.68-15.67,2.45-4.57,5.31-8.93,8.07-13.33,1.46-2.32,3.66-3.36,6.4-2.99,2.45.34,3.23,1.55,2.49,3.92-.32,1.04-.87,2.03-1.41,2.99-3.34,5.93-6.71,11.84-10.05,17.76-.35.63-.59,1.32-.87,1.98,1.04-.11,1.66-.61,2.36-.99,1.21-.65,2.4-1.45,3.7-1.79,3.51-.91,6.01,1.13,5.68,4.71-.18,1.9-.86,3.76-1.41,5.61-.41,1.36-.99,2.68-1.49,4.01.97-.1,1.63-.42,2.16-.9,1.81-1.62,3.56-3.3,5.37-4.93.56-.5,1.16-1.02,1.84-1.29,1.72-.68,3.16.5,2.77,2.28-.18.86-.47,1.89-1.08,2.43-2.96,2.61-5.89,5.3-9.13,7.53-2.86,1.97-6.46,1.71-8.37-.14-2.36-2.3-1.78-5.04-.86-7.76.37-1.1.8-2.18,1.2-3.26-.71.15-1.12.42-1.43.78-3.56,4.24-7.17,8.45-10.63,12.77-1.03,1.28-2,2.32-3.75,2.07-1.68-.24-2.71-1.29-3.27-2.84-.2-.57-.41-1.14-.65-1.82-6.67,3.06-13.27,5.22-19.48-.29-2.33,1.31-4.45,2.63-6.69,3.72-1.98.96-4.08.96-5.93-.39-1.82-1.32-1.43-3.31-1.27-5.17.06-.73.21-1.45.37-2.57-2.32,1.77-4.22,3.37-6.27,4.76-3.68,2.49-7.42,2.04-9.91-1.5-.75.46-1.51.92-2.27,1.39-3.54,2.16-7.22,3.51-11.48,2.44-.56-.14-1.55.43-2,.96-2.57,3.01-5.04,6.1-7.53,9.16-.62.76-1.22,1.55-1.92,2.43h114.1v-73.16c-.81,0-1.49,0-2.17,0-16.73,0-33.46.02-50.19-.04-1.57,0-2.52.51-3.48,1.69-9.53,11.75-19.09,23.47-28.69,35.17-.97,1.18-1.48,2.29-1.51,3.87-.03,1.28-.52,2.89-1.4,3.76-2.09,2.08-4.56,3.78-6.81,5.7-1.83,1.55-3.58,3.21-5.36,4.82,3.93.56,11.03-3.8,12.42-6.97,3.68-8.33,14.08-12.67,20.64-9.3.41.21,1.25-.14,1.76-.44,1.31-.76,2.46-1.86,3.84-2.41,2.28-.91,3.96.55,3.47,2.93-.25,1.19-.75,2.38-1.35,3.45-1.59,2.85-3.35,5.6-4.93,8.45-.85,1.54-1.48,3.21-2.21,4.81.17.11.34.23.51.34,2.12-1.63,4.74-2.6,5.5-5.79,1.7-7.11,9.85-13.5,16.75-13.36,3.58.07,5.97,2.27,6.21,5.71.17,2.46-.69,4.13-2.32,4.3-2.48.26-2.39-1.76-2.82-3.42Zm-191.93,60.78c-.12-.04-.25-.09-.37-.13-.87,2.18-1.72,4.36-2.61,6.52-3.78,9.13-8.04,18-14.17,25.84-1.46,1.87-3.35,2.27-4.86,1.14-1.55-1.16-1.57-2.87-.42-4.98,4.26-7.77,8.71-15.45,12.55-23.42,2.41-5.02,3.86-10.5,5.72-15.79.46-1.32.26-2.45-.71-3.62-2.43-2.94-4.77-5.96-7-9.05-1.06-1.46-2.01-1.68-3.62-.87-7.83,3.94-14.92,8.92-20.75,15.46-20.34,22.83-27.84,50.17-27.63,80.09.03,4.31,1.16,8.51,3.28,12.36,3,5.45,8.57,7.72,14.47,5.74,6.19-2.08,10.81-6.37,15.07-11.09,9.55-10.61,17.22-22.58,24.78-34.61.73-1.16,1.07-2.66,1.22-4.05.79-7.51,1.31-15.06,2.23-22.56.7-5.69,1.88-11.33,2.84-16.99Zm47.43,4.76c.43-2.97-1.92-5.72.07-8.47.08-.11-.12-.39-.14-.59-.22-2.07-.44-4.14-.64-6.21-.02-.2-.07-.53.04-.6,1.61-1.17.3-2.43.19-3.68-.13-1.41-.55-3.31.16-4.16,1.23-1.48.32-2.48.09-3.71-.1-.56-.05-1.14-.05-1.72,0-1.53-.1-2.96.43-4.56.5-1.52-.41-3.47-.53-5.24-.06-.89.28-1.81.45-2.72q-.49-4.48.57-8.74c.07-.3-.12-.67-.2-1-.34-1.46-.63-2.94-1.03-4.38-.35-1.26-.67-2.47.44-3.53-1.49-1.89-.6-4.18-1.03-6.26-.21-.99.11-2.1.19-3.15.2,0,.4-.01.61-.02-.26-.64-.5-1.29-.77-1.93-.3-.69-.63-1.37-.94-2.04,1-.79,1.6-3.92,1.31-5.26-.36-1.69-1.13-3.78-.47-5.06.8-1.55.32-2.52-.03-3.77-.1-.37-.17-.76-.19-1.15-.11-1.81-.2-3.63-.32-5.88-4.04,3.02-7.73,4.64-11.81,2.26-1.7.94-3.26,1.8-5.34,2.95h4c-2.81,2.8-2.89,7.1-7.56,8.46,2.84.51,2.59,2.32,2.59,4.07,0,1.25.17,2.49.23,3.74.1,2.16.69,4.57-2.52,5.28.63.15,1.27.29,2.2.51-.36,2.6-.71,5.17-1.1,8.06,1.78-.92,3.35-1.74,4.92-2.54,1.38-.71,2.88-1.23,3.85.41.96,1.61.07,3.21-1.26,3.94-3.21,1.76-6.5,3.5-9.96,4.64-3.71,1.23-5.66-.44-6.14-4.5-.25-2.08-2.67-3.27-4.29-2.07-2.17,1.61-4.28,3.31-6.43,4.96-2.04,1.58-4.34,1.74-6.12.43-1.58-1.16-1.79-2.74-.62-5.45.73-1.69,1.56-3.34,2.35-5-.53-.02-.82.14-1.04.37-3.87,4.07-7.78,8.1-11.59,12.24-2.42,2.63-3.58,2.85-6.62.98-.43-.26-1.2-.41-1.6-.19-1.2.64-2.28,1.48-3.62,2.37,1.6,2.09,3.2,4,4.6,6.05,1.11,1.63,2.23,2.51,4.39,1.87,1.63-.48,3.43-.35,5.15-.53.46-.05.92-.19,1.35-.35,2.9-1.06,5.71-2.52,8.7-3.1,2.94-.58,6.05-.35,9.09-.29.76.02,1.51.76,2.27,1.18-.63.67-1.15,1.51-1.91,1.95-1,.58-2.16.99-3.29,1.23-2.83.61-5.69,1.09-8.72,1.66,5.16,5.25,4.83,11.65,3.86,18.68.46-1.09.7-1.72.98-2.33,1.57-3.35,4.29-5.24,7.87-5.75,3.21-.46,4.97,1.31,4.42,4.52-.67,3.89-1.24,7.88-2.6,11.55-2.2,5.99-1.07,10.8,3.5,15.11.93.87,1.53,1.2,2.79.9,5.19-1.24,10.38-2.52,15.63-3.43,3.67-.63,7.44-.69,11.22-1Zm-83.31-69.92c1.63-1.05,3.1-2.29,4.79-3.02,2.35-1.02,4.26.56,3.51,2.98-.66,2.13-1.87,4.13-3.02,6.08-1.7,2.88-1.74,3.03.99,5.59,2.33-8.94,6.2-17.2,10.63-25.19,2.24-4.05,4.31-8.45,7.49-11.66,3.9-3.93,8.88-6.78,13.4-10.08.62-.45,1.31-.82,2.4-1.5-2.92-.47-4.98-1.15-4.73-4.17.02-.26-.49-.61-.81-.83-1.25-.83-1.11-1.75-.29-2.79,1.24-1.58,2.52-3.14,3.65-4.8,1.41-2.06,2.7-4.21,4.13-6.47-.63-.1-.84-.16-1.04-.16-27.75-.39-55.51-.78-83.27-1.11-.88-.01-2.21.54-2.53,1.2-.32.69.09,2.03.63,2.75,3.35,4.51,6.86,8.91,10.24,13.39.85,1.13,1.79,1.69,3.23,1.9,2.18.32,4.35.88,6.45,1.56,11.75,3.81,18.35,12.98,14.26,25.49-.19.59-.22,1.53.12,1.94,2.85,3.4,4.43,8.21,9.76,8.9Zm141.96-54.55c0,1.95.17,3.89-.06,5.78-.18,1.48.33,2.21,1.44,3.08,2.22,1.74,4.2,3.79,6.37,5.6.71.59,1.67,1.06,2.58,1.19,4.29.63,8.72.69,12.88,1.78,4.93,1.29,7.32,5.71,6.8,10.77-.43,4.19-2.29,7.67-5.15,10.66-4.42,4.63-9.67,8.09-15.5,10.67-.77.34-1.52.73-2.47,1.19,2.3,1.21,4.32,2.13,6.2,3.28,5.83,3.54,8.07,8.95,5.55,14.64-1.16,2.63-3.44,4.77-5.25,7.1-.5.65-1.41,1.11-1.65,1.82-1.21,3.6-2.26,7.25-3.36,10.88,4.22-4.7,8.17-9.52,12.09-14.37.25-.31.47-.95.32-1.25-2.13-4.35-.76-8.35,1.51-12.02,3.53-5.72,8.32-9.59,15.57-9.22.59.03,1.37-.52,1.79-1.02,3.16-3.78,6.26-7.61,9.37-11.42,9.26-11.34,18.53-22.66,27.73-34.05.61-.76,1.23-2.25.88-2.85-.45-.77-1.84-1.03-2.86-1.43-.36-.14-.82-.03-1.24-.04-19.56-.25-39.12-.52-58.68-.75-4.98-.06-9.96,0-14.87,0Zm-36.69,27.64c-1.24-.4-2.44-.75-3.61-1.19-.91-.34-1.75-.85-2.65-1.2-1.44-.56-3.64.49-3.66,1.77-.04,3.75-1.73,6.31-5.25,7.7-.4.16-.65.73-.97,1.11,2.05,1.12-.99,3.87,1.55,4.83-1.1,1.73-.44,3.55-.23,5.34.11.93.32,1.84.48,2.76.08-.01.15-.03.23-.04v6.58c.48.25,1,.53,1.52.8-.65,1.68-1.24,3.23-1.84,4.77.68.59,1.15,1.28,1.03,1.84-.31,1.39-.19,2.41,1.45,2.76-1.62,3.17-1.27,6.14-.04,9.74-1.2,2.59-1.4,5.89-.05,9.2.47,1.64-2.08,2.53-.74,4.64.75,1.18-1.56,3.41.94,4.07.21,1.77-2.26,2.57-.81,4.57.85,1.17-1.72,3.42,1.12,4.2-1.17,2.75-2.52,5.37-.45,8.44-1.62,2.56-1.86,5.47-.2,8.8-.72,1.55-1.64,3.51-2.63,5.65,2.11.22,3.84.35,5.55.61,1.03.15,1.58-.11,2.12-1.08,1.57-2.8,4.14-4.4,7.17-5.29,1.36-.4,3.09-.81,3.71.66.44,1.03-.2,2.58-.49,3.86-.09.42-.65.71-.9,1.12-.41.66-.75,1.37-1.28,2.36,3.62.9,6.89,1.75,10.19,2.47.25.05.97-.83,1-1.3.05-1.09-.46-2.24-.27-3.29.52-2.99,1.27-5.94,1.97-9.06-3.26-.69-6.92-1.42-10.56-2.25-.56-.13-1.44-.68-1.45-1.05-.11-3.57-.07-7.14-.07-10.89,5.4,1.11,10.54,2.16,16.12,3.31-3.23-4.54-4.7-9.29-5.16-14.3-.2-2.12-.88-2.84-3.04-2.76-4.76.16-9.42-.63-13.78-2.59-8.09-3.63-9.35-11.55-2.57-17.2,2.45-2.04,5.5-3.42,8.4-4.84,1.25-.61,1.91-1.27,2.29-2.59.8-2.79,1.85-5.51,2.7-8.28.56-1.85,2.21-3.73-.34-5.59,1.04-.18,1.65-.28,2.25-.38-2.93-.19-2.75-2.57-3.1-5.08-1.04,1.39-1.56,2.6-2.47,3.14-1,.59-2.42.87-3.54.66-.45-.08-1.15-2.11-.8-2.75,1.87-3.46,4.03-6.76,6.06-10.07-3.14-.87-5.3-3.02-4.91-4.64Zm-112.2,41.45c-.96.78-1.51,1.29-2.12,1.71-2.04,1.42-3.96,3.13-6.2,4.14-4.26,1.92-7.73-.57-7.53-5.19.17-4.1,1.75-7.63,4.47-10.71,2.47-2.79,5.61-4.42,9.33-5.5-1.24-1.53-2.29-2.82-3.46-4.26-1.04,1.39-1.8,2.47-2.62,3.49-.83,1.03-1.68,2.03-2.59,2.99-8.91,9.37-20.08,14.49-32.55,16.85-5.63,1.06-11.42,1.29-17.15,1.8-1.42.13-2.63.3-3.05,1.9-1.08,4.14-2.17,8.28-3.32,12.69,1.33,0,2.43,0,3.53,0,25.19,0,50.38-.08,75.57.08,3.99.03,7-2.06,10.67-3.05-2.12-2.77-4.06-5.29-6.01-7.82-.64-.82-1.39-1.58-1.91-2.46-1.11-1.9-2.2-2.1-4.07-.72-2.21,1.63-4.61,3.18-7.62,2.83-2.56-.3-3.86-1.72-3.81-4.29.03-1.3.24-2.6.43-4.47Zm-64.24,3.91c4.29-.24,8.25-.3,12.17-.72,11.32-1.22,22.02-4.38,31.55-10.82,6.65-4.49,12.25-10.01,15.64-17.45,4-8.78,1.45-17.18-6.89-22.02-2.54-1.48-5.39-2.6-8.24-3.34-9.91-2.6-19.82-1.66-29.65.63-6.81,1.59-13.37,3.94-18.61,8.76-1.81,1.67-3.03,4.04-4.25,6.24-.36.66,0,1.89.37,2.72.22.5,1.1,1.02,1.62.96.47-.05.93-.84,1.26-1.38,1.29-2.17,2.22-4.66,3.88-6.49,1.73-1.91,3.99-3.48,6.27-4.71,9.05-4.88,18.87-6.45,28.99-5.72,4.09.3,8.29,1.14,12.11,2.61,7.72,2.98,10.79,9.77,8.55,17.73-2.26,8.05-7.6,13.86-13.91,18.98-2.06,1.67-3.62,2.14-6.29.63-5.32-2.99-11.42-3.7-17.44-4.32-3.26-.34-6.55-.43-10.44-.66,3.55-6.68,6.76-13.12,10.37-19.33,1.94-3.33,4.58-6.24,6.9-9.35.74-1,1.45-2.01,2.17-3.02-1.46-.13-2.92-.27-4.38-.39-.13-.01-.26.09-.4.12-4.56,1-7.7,3.92-10.34,7.56-5.17,7.14-8.83,15.06-11.77,23.32-.52,1.46-1.22,2.19-2.76,2.57-4.35,1.06-8.24,3-10.67,7-1.97,3.24-1.18,6.29,2.18,8.06,1.68.89,3.59,1.33,5.57,2.04-.38,1.89-.77,3.92-1.19,5.95-.52,2.49-.19,4.87,1.22,6.98.45.68,1.34,1.06,2.03,1.58.39-.68.94-1.32,1.13-2.05,1.13-4.21,2.18-8.45,3.24-12.64Zm273.62.8c-.17-.13-.35-.25-.52-.38.18-.98.17-2.04.58-2.91,1.77-3.76,3.6-7.48,5.52-11.16.83-1.59,1.99-3.01,2.87-4.58.29-.52.15-1.28.21-1.93-.71-.05-1.56-.38-2.1-.11-1.22.62-2.36,1.46-3.39,2.37-.94.83-1.65,1-2.89.4-1.32-.64-2.93-1.06-4.39-1-6.91.24-11.69,3.77-14.64,9.93-.35.73-.68,1.63-1.29,2.05-2.56,1.76-5.17,3.48-7.89,4.99-1.09.61-2.51.79-3.79.86-1.53.08-2.39-.98-2.66-2.42-.26-1.39.03-2.28,1.52-3.12,3.71-2.1,7.33-4.43,10.74-7,1.57-1.18,3.4-3.03,2.06-5.33-1.33-2.29-3.84-1.76-6.05-1.61-.2.01-.4.11-.6.17-6.85,2.26-11.1,6.96-12.58,13.96-1.14,5.41,2.29,8.79,7.74,7.98,3.7-.55,6.68-2.59,9.65-4.66.58-.41,1.17-.81,1.94-1.34,0,.86-.03,1.35,0,1.83.16,2.61,1.67,3.79,4.2,3.01,1.37-.42,2.73-1.08,3.87-1.94,2.27-1.71,4.38-3.62,6.55-5.47,1.07-.91,2.1-1.87,3.35-3-.89,3.23-1.93,6.03-2.39,8.92-.61,3.88,1.15,5.17,4.67,3.48,2.83-1.36,5.46-3.14,8.26-4.79,1.46,3.72,4.68,4.65,8.4,4.24,2.18-.24,4.41-.7,6.42-1.54,2.59-1.08,4.98-2.64,7.57-4.06-.5,1.41-1.32,2.82-1.39,4.26-.05,1.02.72,2.26,1.49,3.04.25.26,1.71-.56,2.53-1.04.37-.21.5-.81.77-1.21,3.62-5.57,8-10.47,13.08-14.74.9-.76,1.99-1.3,3-1.94l.49.45c-.9,2.06-1.89,4.09-2.67,6.19-.62,1.67-1.26,3.41-1.4,5.16-.24,3.03,1.68,4.62,4.59,3.83,1.7-.46,3.45-1.2,4.84-2.25,2.71-2.05,5.2-4.38,7.72-6.66.36-.33.35-1.06.5-1.61-.62.06-1.38-.09-1.82.22-.9.63-1.58,1.55-2.42,2.28-1.84,1.58-3.66,3.19-5.6,4.63-.65.48-1.64.49-2.48.72-.03-.91-.3-1.9-.04-2.72.85-2.63,2.09-5.15,2.8-7.82.33-1.24.22-3.4-.52-3.91-1.08-.74-2.94-.49-4.44-.4-.67.04-1.33.69-1.94,1.15-2.57,1.91-5.13,3.85-7.69,5.79-.2-.12-.39-.24-.59-.35,5.44-9.93,10.88-19.87,16.44-30.02-.48-.2-1.12-.63-1.8-.73-2.11-.31-3.75.46-5.02,2.23-5.73,7.99-10.39,16.6-14.14,25.64-1.88,4.54-4.82,7.7-8.83,10.04-2.36,1.38-4.92,2.69-7.56,3.24-4.45.93-6.6-1.84-5.1-6.15,1.3-3.74,3.68-6.69,7.14-8.63,1.23-.69,2.71-1.01,4.12-1.3,1.22-.25,1.98.3,1.91,1.73-.04.78.11,1.56.17,2.34.19.07.37.13.56.2.42-.52,1.01-.98,1.24-1.58,1.2-3.03-.8-5.97-4.1-6.13-6.24-.31-14.02,5-15.75,11.51-.95,3.6-3.34,5.39-5.98,7.23-.91.64-2.02,1-3.03,1.49Zm-97.5-29.79c.3.17.59.35.89.52.61-.66,1.23-1.3,1.83-1.97,3.19-3.54,6.27-7.19,9.6-10.59,1.58-1.61,3.63-2.77,5.47-4.13.18.63.06.94-.06,1.25-4.09,10.74-8.21,21.47-12.21,32.24-.56,1.5-1.26,2.32-2.77,2.89-4.1,1.58-8.05,3.5-10.62,7.32-2.5,3.72-2.13,7.62,1.41,10.35,1.92,1.48,4.29,2.58,6.62,3.26,6.67,1.94,13.48,1.3,20.24.46,9.33-1.16,18.3-3.52,25.93-9.28,2.82-2.13,5.48-4.75,7.46-7.67,2.82-4.16,2.06-8.6-1.88-11.69-2.67-2.09-5.93-3.46-9-5.02-1.2-.61-2.57-.86-4.22-1.39.9-.34,1.41-.54,1.92-.73,7.24-2.66,14.01-6.2,19.32-11.87,2.21-2.36,4.1-5.3,5.25-8.32,1.97-5.17-.41-9.59-5.64-11.34-2.02-.68-4.17-1.15-6.29-1.28-12.65-.78-24.52,2.03-35.55,8.22-6.88,3.86-12.76,8.86-16.72,15.82-.5.88-.66,1.96-.97,2.94Zm-160.65-20.38c-.08-.19-.15-.37-.23-.56-2.84,1.21-5.76,2.27-8.51,3.67-4.82,2.45-8.83,5.75-10.59,11.16-.49,1.52-1.68,1.72-3.03,1.33-2.37-.68-3.64-3.54-2.25-6.17,1.23-2.33,2.88-4.6,4.83-6.35,4.03-3.6,8.95-5.72,14.09-7.31,7.3-2.26,14.77-3.4,22.4-3.61h-50.29v73.09h12.44c-2.93-3.03-3.98-6.4-3.01-10.36.31-1.27,1.04-2.87.57-3.8-.48-.95-2.2-1.3-3.4-1.86-5.12-2.39-6.32-6.77-3.03-11.38,2.23-3.13,5.42-5.11,9-5.98,2.65-.65,3.56-2.12,4.45-4.39,3.94-10.09,8.34-19.94,16.56-27.47Zm-5.72,29.86c2.26.18,4.39.28,6.49.52,7.09.82,14.17,1.71,20.55,5.34.37.21,1.11.19,1.45-.05,6.23-4.27,11.29-9.57,14.34-16.58.21-.49.09-1.38-.23-1.8-4.71-6.17-9.47-12.3-14.25-18.41-.4-.51-1.05-1.15-1.61-1.17-3.15-.11-6.3-.05-9.62-.05,1.07,2.52.23,4.33-1.42,5.97-1.12,1.13-2.36,2.24-3.15,3.59-4.14,7.04-8.15,14.16-12.19,21.26-.19.34-.21.77-.37,1.38Zm59.12,20.56c.38-1.81.39-3.1.91-4.13,2.18-4.33,4.5-8.58,6.79-12.85.49-.91,1.17-1.73,1.61-2.67.2-.43.24-1.29-.03-1.51-.39-.33-1.22-.53-1.67-.34-1,.43-2.01,1.01-2.78,1.77-1.49,1.45-2.9,2.11-4.83.73-.62-.44-1.58-.49-2.4-.57-8.8-.83-17.48,7.61-16.89,16.42.16,2.42,1.56,3.63,3.89,2.95,1.62-.47,3.25-1.29,4.58-2.33,3.21-2.51,6.25-5.24,9.58-8.06-.88,2.82-1.88,5.33-2.37,7.93-.27,1.43-.16,3.41.66,4.44,1.22,1.53,3.08.34,4.59-.28.89-.37,1.78-.8,2.58-1.34,1.75-1.18,3.44-2.45,5.18-3.7,1.36,3.97,2.89,5.13,5.72,4.16,1.22-.42,2.33-1.2,3.4-1.95,1.13-.79,2.16-1.74,3.45-2.81-.38,1.82-.56,3.28,1.19,4.06,1.78.79,2.44-.72,3.37-1.67,4.96-5.04,9.89-10.11,14.91-15.08,1.08-1.08,2.49-1.83,3.74-2.74.14.12.27.24.41.35-.97,1.81-1.97,3.59-2.9,5.42-1.25,2.47-2.54,4.92-3.6,7.47-.26.62.06,1.88.57,2.33.54.48,1.67.58,2.45.42.75-.16,1.39-.86,2.06-1.35,2.72-2.03,5.37-4.18,8.18-6.08,2.09-1.42,4.38-2.53,7.16-4.1-.25,1.52-.32,2.39-.55,3.21-.45,1.6-1.16,3.14-1.45,4.77-.21,1.19-.37,2.96.29,3.59.7.66,2.55.69,3.61.26,3.27-1.3,6.44-2.89,9.58-4.5.58-.3.87-1.19,1.29-1.81-.75,0-1.61-.24-2.23.04-2.14.97-4.18,2.18-6.31,3.19-.64.3-1.82.59-2.08.29-.45-.51-.61-1.53-.47-2.25.37-1.83,1.05-3.59,1.47-5.41.46-1.99-.5-3.14-2.54-2.99-1.08.08-2.24.33-3.17.86-3.2,1.8-6.31,3.75-9.45,5.65-.66.4-1.31.84-1.96,1.26,1.33-3.37,2.91-6.44,4.47-9.51.65-1.27,1.27-2.58-.02-3.81-1.33-1.26-2.87-1.04-4.22-.16-2.31,1.51-4.55,3.15-6.75,4.82-1.59,1.21-3.07,2.55-4.6,3.84.35-1.46,1.06-2.58,1.56-3.78.27-.65.44-1.51.24-2.15-.56-1.84-2.73-2.18-4.14-.47-2.25,2.72-4.06,5.81-6.38,8.46-2.82,3.21-5.92,6.17-9.01,9.13-.53.5-1.59.44-2.41.64-.12-.84-.58-1.81-.32-2.51,1.41-3.9,2.69-7.89,4.58-11.56,4.57-8.87,9.46-17.57,14.19-26.37.33-.61.67-1.66.39-2.04-.41-.55-1.39-.91-2.13-.92-1.9,0-3.45.81-4.53,2.48-7.11,10.99-13.25,22.44-16.68,35.17-.17.64-.47,1.36-.95,1.77-1.83,1.59-3.72,3.11-5.67,4.55-.73.53-1.68.76-3.17,1.4Zm67.2-95.19c-1.33,6.66-3.87,13.83-3.32,21.4.24,3.23,1.14,6.6,2.54,9.52,2.27,4.72,8.26,7.04,12.32,4.83,3.61-1.97,6.91-4.57,8.26-8.87,1.5-4.78,1.93-9.69,1.3-14.6-.42-3.32-1.25-6.67-2.48-9.78-1.49-3.77-6.28-5.71-10.1-4.69-2.69.72-5.39,1.38-8.54,2.19Zm-19.76,30.15c3.44-5.41,6.66-10.41,9.81-15.46.91-1.46,1.8-2.99,2.34-4.61,2.18-6.59-1.99-12.45-8.87-12.39-2.89.02-5.79.48-8.66.89-.46.06-1,.81-1.19,1.35-.84,2.34-1.52,4.74-2.34,7.08-.39,1.11-1.37,2.15-1.35,3.21.03,1.55.6,3.13,1.19,4.59.14.35,1.33.5,1.97.37,1.45-.28,2.85-.79,4.41-1.24,0-.18.02-.52,0-.86-.28-3.9,1.27-7.17,3.65-10.08.4-.49,1.35-.97,1.84-.82.64.21,1.34.97,1.55,1.64.27.88.3,1.96.04,2.85-.56,1.99-1.1,4.05-2.12,5.82-3.91,6.82-7.99,13.53-11.98,20.24.3.47,1.3,1.31,1.26,2.09-.11,1.98.83,2.43,2.47,2.42,4.29-.02,8.57.05,12.85-.05,1.29-.03,2.6-.38,3.84-.78.4-.12.87-.85.85-1.29-.07-1.63-.32-3.25-.52-4.98h-11.05Zm52.75-16.05c-.49-4.32.97-7.96,3.64-11.17,1.26-1.52,2.85-1.15,3.34.77.23.91.32,1.97.08,2.85-.55,1.99-1.07,4.07-2.08,5.84-3.91,6.84-8,13.58-12.02,20.34.26.43,1.24,1.31,1.22,2.18-.04,1.85.8,2.33,2.36,2.33,3.94,0,7.88.08,11.81-.04,1.96-.06,3.91-.48,5.93-.74-.2-2.31-.36-4.21-.54-6.31h-10.98c.42-.74.65-1.21.94-1.66,2.93-4.62,5.91-9.22,8.8-13.87.91-1.46,1.79-3,2.32-4.62,1.91-5.88-1.5-11.66-7.32-12.24-2.31-.23-4.69.37-7.03.3-3.26-.1-4.6,1.41-5.23,4.52-.51,2.53-1.85,4.9-2.83,7.33-.74,1.84-.06,3.41,1.02,4.83,1.07,1.41,2.21.32,3.35-.03.96-.3,1.99-.39,3.22-.62Zm27.5-2.78c.67-2.82,1.25-5.57,2.01-8.27.21-.74.96-1.32,1.46-1.97.91.74,2.4,1.36,2.61,2.26.41,1.76.15,3.69.08,5.54-.12,3.03-1.21,5.31-4.53,6.08-.7.16-1.17,1.33-1.75,2.04.84.49,1.66,1.01,2.53,1.44.28.14.68.02,1.03.03,2.62.03,3.74.95,3.8,3.57.05,2.2-.18,4.42-.4,6.61-.17,1.7-.79,3.18-2.91,3.06-1.99-.11-2.75-1.08-2.93-3.54-.14-1.92-.3-3.83-.47-6.03-2.8.79-5.3,1.5-7.85,2.22,0,3.61.96,6.82,2.95,9.68,1.26,1.81,3.08,2.78,5.32,2.76,5.55-.05,9.91-2.46,12.95-7.03,1.78-2.67,2.3-5.78.92-8.74-1.04-2.23-2.71-4.17-4.3-6.55.05-.04.64-.34,1.02-.8,2.52-3.07,3.72-6.61,2.64-10.46-.94-3.36-3.84-4.96-7.08-5.31-3.29-.36-6.64-.16-9.97-.13-.34,0-.88.47-.99.82-1.07,3.44-2.2,6.87-3,10.37-.21.92.41,2.36,1.13,3.05.48.46,1.84.09,2.79-.05,1.06-.15,2.09-.47,2.94-.67Zm-71.91,53.07c-.04-.18-.09-.37-.13-.55-.47-.38-.88-.91-1.42-1.13-1.86-.74-1.45-1.89-.64-3.11.42-.63.91-1.23,1.4-1.81,3.99-4.65,8.88-8.11,14.22-11.06,1.67-.93,2.98-2.51,4.46-3.79-.13-.19-.27-.38-.4-.57-2.97.5-5.95.99-9.36,1.56-.86-.29-2.34-.8-3.81-1.3l-.24.65c1.31.79,2.63,1.58,3.92,2.35-1.64,2.15-5.4,1-5.63,3.86-2.53.28-4.89.54-7.49.82.17,2.12.27,4.04.5,5.95.15,1.2-.25,1.77-1.31,2.43-2.28,1.42-4.46,3.03-6.48,4.79-1.21,1.05-2.04,2.52-3.31,4.15.24-3,.44-5.57.67-8.42-2.91-.15-5.6-.29-8.29-.42-.04.18-.09.35-.13.53,1.33,1.04,2.66,2.08,4.37,3.42-2.8,1.13-5.25,2.02-7.62,3.1-1.02.46-2.27,1.1-2.73,2.01-3.53,7-6.9,14.08-10.27,21.16-.36.76-.44,1.66-.74,2.9.87-.5,1.43-.68,1.79-1.05,2.64-2.73,5.37-5.39,7.82-8.29,2.18-2.59,3.89-5.57,6.07-8.17,2.36-2.8,5.48-2.06,6.64,1.39.09.26.2.5.34.83,3.63-2.41,6.57-6.02,11.36-5.75,2.03-2.34.58-7.75,6.46-6.49Zm-11.34,131.46c.95-.65,1.45-.83,1.71-1.19,3.58-4.82,7.59-9.41,8.02-15.84.07-1.03.37-2.05.63-3.05,1.23-4.76,3.5-8.98,6.76-12.78-3.88-4.99-7.68-9.88-11.76-15.14-.28,1.09-.46,1.6-.55,2.12-1.07,6.01-2.34,11.99-3.13,18.04-1,7.69-1.66,15.43-2.34,23.16-.12,1.38.37,2.81.65,4.67Zm44.66-12.28c.45.3.91.59,1.36.89.58-.95,1.17-1.9,1.75-2.85,3.28-5.29,6.58-10.56,9.82-15.87.23-.37.2-1.09,0-1.49-2.03-4.07-3.39-8.32-3.4-13.07-1.48.2-3.35-1.02-3.89,1.26-1.75,7.42-3.48,14.85-4.97,22.32-.57,2.87-.47,5.87-.68,8.82Zm-24.44-23.31c5.7-4.12,11.56-6.55,18.41-4.82.93-1.43,1.77-2.72,2.81-4.32h-28.28c2.46,3.19,4.72,6.11,7.06,9.13Zm74.69-123.54c-.39.18-.74.26-.97.46-1.63,1.4-3.42,1.81-5.58,1.44-4.83-.84-9.7-1.48-14.55-2.22-1.77-.27-3.03.24-3.33,2.15-.37,2.39.74,4.49,2.38,4.97.95.28,1.8.86,2.7,1.31.58.42,1.76.1,2.07.49.89,1.09,1.51.42,2.31.07,4.5-1.93,8.98-3.92,13.54-5.68,1.59-.61,1.99-1.36,1.44-3Zm-76.92-16.91c-1.67,0-3.13-.08-4.57.03-.7.05-1.67.26-2.02.75-1.82,2.58-3.47,5.27-5.32,8.14,4.72.5,8.93.53,12.67-2.43-.24-1.99-.48-4.1-.77-6.5Zm71.28.77c-6.77,0-13.22.15-19.65-.07-2.55-.09-3.88.98-4.79,3.03-.19.44-.25,1.09-.06,1.5.11.24.84.31,1.27.27,2.49-.22,4.97-.48,7.45-.75.4-.04.88-.1,1.15-.34,2.42-2.11,5.54-2.17,8.43-2.85.51-.12,1.79.73,1.8,1.15.07,3.13,2.33,2.61,4.39,2.9v-4.84Zm6.69,103.83c6.8-6.4,10.69-14.38,12.7-23.73-2.33.58-3.45,1.8-4.01,3.78-1.99,7.03-4.57,13.81-8.69,19.96Zm-17.09,3.24c-2.19-.45-4.13-.85-6.42-1.33,0,2.49-.06,4.43.04,6.36.03.47.49,1.2.91,1.33,1.43.43,2.92.65,4.61.99.3-2.51.56-4.76.87-7.35Zm33.17-4.59c.03-1.81-1.44-3.27-3.31-3.27-2.13,0-4.22,2.03-4.21,4.08,0,2.03,1.25,3.36,3.13,3.37,2.18,0,4.35-2.06,4.39-4.18Zm-14.64-16.79c-.29-.25-.58-.5-.87-.74-.99.77-2.62,1.38-2.87,2.33-1.37,5.4-2.42,10.89-3.57,16.35.17.05.34.1.51.15,3.18-5.7,5-11.89,6.8-18.1Zm-156.62-48.73c.62-6.49-4.43-12.92-10.23-13.25,3.4,4.4,6.68,8.65,10.23,13.25Zm161.79,46.81c-.24-.2-.49-.4-.73-.6-.74.72-1.76,1.32-2.17,2.19-.7,1.49-.95,3.18-1.5,4.74-1.58,4.47-3.22,8.92-4.84,13.37,4.61-5.87,7.37-12.59,9.24-19.71Zm-12.94,3.48c-3.27.02-3.56.23-3.74,2.81-.19,2.55-.36,5.1-.39,7.65-.02,1.86.18,3.73.29,5.59.18,0,.37,0,.55.01,1.08-5.29,2.17-10.58,3.29-16.07Zm-20.9,50.63c2.08-2.56,3.82-4.71,5.74-7.09h-9.49c1.29,2.44,2.42,4.58,3.75,7.09Zm-1.84-33.29c0,2.17.06,4.08-.02,5.99-.05,1.22.42,1.79,1.61,1.92.74.08,1.47.27,2.75.52,0-2.37.05-4.49-.04-6.62-.02-.38-.55-.94-.96-1.08-.96-.33-1.98-.45-3.34-.74Zm13.32,2.77c-.28,2.61-.52,4.92-.79,7.47,5.43-2.34,5.75-2.73,5.46-6.49-1.41-.3-2.87-.6-4.68-.98Zm-23.56-111.96c2.33-.51,5.76-9,4.59-11.78-3.91,3.04-4.01,7.54-4.59,11.78Zm-50.37-11.87c-3.14,1.65-5.51,7.71-4.17,11.8,2.12-3.82,4.47-7.15,4.17-11.8Zm-21.34,110.48c1.91,2.5,3.63,4.75,5.49,7.19,1-5-1.28-8.09-5.49-7.19Zm98.28,7.41c.24,0,.48,0,.72-.01,0-4.08.02-8.16-.04-12.24,0-.38-.55-.75-.85-1.13-.36.35-1,.68-1.02,1.05-.26,4.18.07,8.31,1.19,12.33Zm-2.57-1.01c-.23-3.58-.42-7.16-.75-10.72-.04-.46-.78-.87-1.19-1.3-.31.45-.92.93-.89,1.36.24,3.73,1.03,7.35,2.83,10.66Zm11,9.42c-.97-.25-1.69-.44-2.63-.68-.35,1.56-.66,2.94-.97,4.32.11.07.22.13.32.2,1-1.18,2.01-2.35,3.27-3.84Zm-133.89-38.09c.16.12.31.25.47.37.94-.66,1.88-1.33,3.17-2.23-.73-.69-1.2-1.14-1.98-1.89-.66,1.5-1.15,2.62-1.65,3.74Zm87.7-69.8c1.14-.64,2.23-1.24,3.51-1.95-3.41-.66-3.87-.41-3.51,1.95Z"/>
    <path class="cls-3" d="m275.67,302.52c1-1.48,1.96-2.92,2.94-4.33.67-.97,1.32-1.96,2.09-2.85,1.06-1.24,2.36-2.55,4.08-1.73,1.84.88,1.02,2.65.61,4.07-2.44,8.33-4.53,16.73-5.22,25.41-.16,2.06-.17,4.17.09,6.21.23,1.87,1.31,2.24,2.71.94,1.57-1.45,3.16-2.99,4.29-4.78,2.82-4.45,5.43-9.03,7.99-13.63.36-.65.18-1.84-.17-2.59-2.13-4.67-3.87-9.37-2.59-14.64,1.05-4.32,3.99-6.69,8.12-7.74.62-.16,1.38.27,2.08.42-.3.57-.47,1.31-.93,1.69-2.18,1.77-2.72,3.95-1.83,6.51.57,1.63,1.18,3.26,1.95,4.8,1.56,3.08,3.26,6.09,5.08,9.48,1.66-2.05,3.15-4.2,4.95-6.03,2.34-2.37,2.71-4.65,1.65-7.9-.81-2.48-.59-5.52-.1-8.17.79-4.26,4-6.49,8.04-7.5.57-.14,1.28.22,1.92.35-.24.58-.32,1.36-.75,1.69-2.48,1.92-2.73,4.35-1.83,7.1.3.92.62,1.85,1.07,2.7,1.87,3.62,3.8,7.22,5.89,11.17,2.61-3.29,5.26-6.38,7.59-9.7.72-1.03.48-2.7.86-4.02.92-3.11,1.79-6.26,2.98-9.27.9-2.27,4.66-3.84,7.05-3.32,1.88.41,2.32,1.26,1.91,3.62-.88,5.05-1.9,10.09-2.58,15.16-.38,2.86-.3,5.79-.2,8.68.03.79.78,2.01,1.44,2.21.68.21,2.02-.33,2.48-.97,3.71-5.17,7.34-10.41,10.84-15.73.6-.91.42-2.3.72-3.43,2.09-7.89,6.45-14.28,13.24-18.78,2.12-1.4,4.78-2.32,7.31-2.71,4.86-.75,9.04,4.32,7.71,9.04-.19.69-.96,1.21-1.47,1.81-.48-.54-.99-1.06-1.43-1.63-.15-.2-.17-.53-.21-.8-.61-4.29-2.44-4.02-5.47-2.44-1.75.91-3.5,2.11-4.78,3.59-5,5.78-7.92,12.41-6.71,20.23.7,4.52,4.29,6.44,8.68,5,3.85-1.26,7.2-3.47,9.67-6.61,3.84-4.9,7.34-10.07,10.98-15.13.81-1.13,1.5-3.2,3.12-2.34,1.81.96.47,2.68-.23,3.99-3.7,6.91-8.24,13.17-14.35,18.19-3.31,2.71-6.94,4.81-11.08,5.98-7.71,2.18-12.61-.38-15.27-8.2-.4.57-.71,1.04-1.05,1.49-3.04,4.04-5.98,8.18-9.2,12.07-1.24,1.49-3,2.74-4.77,3.56-4.08,1.89-7.98.1-9.16-4.24-.72-2.65-.83-5.46-1.19-8.2-.08-.59-.06-1.19-.12-2.3-2.22,2.73-4.19,5.03-5.99,7.45-.33.44-.12,1.43.09,2.09,1.71,5.51,3.19,11.08,3.19,16.9,0,8.57-3.45,15.77-9.32,21.81-1.6,1.65-3.72,2.91-5.81,3.94-4.52,2.24-7.31,1.64-10.99-2.08-.49.67-.97,1.32-1.44,1.96-2.63,3.57-5.98,6.16-10.21,7.54-4.02,1.31-7.53,0-9.56-3.7-2.04-3.71-2.33-7.64-1.04-11.68,2.15-6.72,6.22-12.35,10.36-17.92,1.12-1.5,2.31-2.95,3.46-4.43q1.91-2.49-.11-5.53c-.85,1.49-1.64,2.91-2.45,4.31-3.34,5.79-6.91,11.4-12.24,15.65-.7.56-1.41,1.14-2.19,1.58-3.01,1.69-5.8.77-6.36-2.61-.7-4.2-.77-8.52-.93-12.79-.07-1.78.31-3.58.54-5.87-.64.93-1.06,1.48-1.43,2.06-3.47,5.6-6.79,11.3-10.48,16.75-1.48,2.18-3.55,4.13-5.73,5.63-3.59,2.47-6.48,1.31-7.97-2.76-.21-.57-.42-1.15-.68-1.87-1.62,2.55-3.01,5.03-4.7,7.28-1.23,1.64-2.69,3.22-4.34,4.41-3.21,2.3-6.65,1.71-8.87-1.58-1.25-1.85-1.89-4.12-2.77-6.21-.21-.49-.29-1.04-.54-1.95-.65.96-1.08,1.63-1.55,2.27-7.57,10.35-15.01,20.82-22.79,31.01-4.46,5.85-10.16,10.48-16.99,13.41-2.58,1.11-5.38,1.93-8.16,2.26-7,.83-11.97-2.69-15.69-8.23-4.04-6.01-6.27-12.82-6.69-19.91-2.03-34.72,8.1-65.02,33.69-89.31,7.73-7.33,16.61-13,27.35-15.04,2.3-.44,4.67-.76,7.01-.74,5.65.04,9.29,3.43,10.12,9.02.81,5.43-.19,10.68-1.69,15.81-4.14,14.12-9.9,27.51-18.58,39.51-.49.67-.93,1.45-1.59,1.91-.57.4-1.4.44-2.12.63-.19-.82-.63-1.67-.51-2.44.12-.76.82-1.42,1.25-2.13,7.1-11.63,13.61-23.56,17.1-36.83,1.05-3.97,1.49-8.19,1.56-12.31.1-5.44-3.37-7.94-8.69-6.71-5.58,1.28-10.37,4.24-15.01,7.42-11.36,7.81-19.82,18.18-25.94,30.4-9.49,18.92-14.2,39.01-13.67,60.22.12,4.68,1.09,9.22,3.28,13.43,3.65,7,10.23,9.48,17.52,6.54,4.93-1.98,8.94-5.3,12.54-9.1,9.03-9.51,16.08-20.49,23.42-31.29,3.33-4.9,4.72-9.91,5.06-15.79.99-16.86,4.07-33.42,8.95-49.62,1.04-3.45,3.6-5.18,6.89-5.92,2.48-.56,3.79.85,3.21,3.22-4.13,16.91-7.62,33.95-9.91,51.21-.78,5.9-1.05,11.87-1.4,17.81-.08,1.33.39,2.73.83,4.03.49,1.45,1.62,1.61,2.83.82.57-.37,1.16-.84,1.51-1.41,2.44-3.94,4.85-7.91,7.2-11.9.29-.49.22-1.21.28-1.83.72-7.81,3.74-14.49,9.9-19.48,5.39-4.37,11.37-6.92,18.54-4.78Zm-2.28,4.86c-2.27-1.18-4.25-.88-5.83.32-1.96,1.48-3.88,3.17-5.34,5.13-3.42,4.61-5.56,9.87-6.83,15.46-.35,1.54-.45,3.15-.46,4.73,0,.65.55,1.3.84,1.95.58-.31,1.27-.52,1.71-.97.72-.74,1.36-1.58,1.88-2.47,4.67-8,9.31-16.03,14.02-24.16Zm27.49,13.27c-5.34,6.91-10.67,13.22-13.35,21.18-.65,1.92-.87,4.07-.89,6.11-.04,3.9,2.64,5.6,6.29,4.23,3.29-1.24,5.19-3.83,6.54-6.88,2.71-6.13,3-12.6,2.37-19.15-.16-1.69-.58-3.36-.97-5.49Zm7.43,23.86c1.66,1.7,3.45,1.69,5.32,1.03,3.4-1.2,5.33-3.86,6.7-6.99,2.68-6.07,2.96-12.48,2.36-18.96-.16-1.74-.61-3.45-.92-5.17-.2-.04-.39-.08-.59-.12-3.05,4.35-6.12,8.69-9.14,13.07-.32.47-.48,1.17-.46,1.75.25,5.37-.81,10.46-3.28,15.38Zm2.63-21.23c2.99-3.92,5.94-7.74,8.83-11.61.26-.35.38-1.09.19-1.47-1.21-2.5-2.52-4.96-3.93-7.7-2.74,3.35-5.19,6.33-7.61,9.35-.26.33-.47.91-.37,1.28.91,3.37,1.9,6.71,2.9,10.14Z"/>
    <path class="cls-4" d="m422.26,225.78c.43,1.66.34,3.68,2.82,3.42,1.63-.17,2.49-1.84,2.32-4.3-.24-3.44-2.63-5.63-6.21-5.71-6.9-.14-15.05,6.25-16.75,13.36-.76,3.19-3.38,4.16-5.5,5.79-.17-.11-.34-.23-.51-.34.73-1.61,1.36-3.27,2.21-4.81,1.58-2.85,3.34-5.6,4.93-8.45.6-1.07,1.1-2.25,1.35-3.45.49-2.38-1.19-3.84-3.47-2.93-1.38.55-2.53,1.65-3.84,2.41-.52.3-1.35.65-1.76.44-6.56-3.37-16.96.96-20.64,9.3-1.4,3.16-8.5,7.53-12.42,6.97,1.78-1.61,3.53-3.26,5.36-4.82,2.26-1.92,4.73-3.61,6.81-5.7.88-.87,1.37-2.48,1.4-3.76.03-1.59.54-2.69,1.51-3.87,9.6-11.69,19.16-23.41,28.69-35.17.96-1.18,1.91-1.7,3.48-1.69,16.73.06,33.46.04,50.19.04.68,0,1.36,0,2.17,0v73.16h-114.1c.7-.89,1.3-1.67,1.92-2.43,2.5-3.07,4.97-6.16,7.53-9.16.45-.53,1.44-1.1,2-.96,4.26,1.07,7.94-.28,11.48-2.44.76-.47,1.52-.93,2.27-1.39,2.5,3.54,6.23,3.98,9.91,1.5,2.05-1.38,3.95-2.98,6.27-4.76-.17,1.12-.31,1.84-.37,2.57-.16,1.86-.55,3.85,1.27,5.17,1.85,1.35,3.95,1.35,5.93.39,2.24-1.09,4.36-2.41,6.69-3.72,6.21,5.51,12.81,3.35,19.48.29.24.67.44,1.25.65,1.82.56,1.56,1.59,2.6,3.27,2.84,1.76.26,2.72-.79,3.75-2.07,3.47-4.32,7.07-8.53,10.63-12.77.3-.36.71-.63,1.43-.78-.4,1.09-.83,2.17-1.2,3.26-.93,2.72-1.51,5.46.86,7.76,1.91,1.86,5.5,2.11,8.37.14,3.24-2.23,6.17-4.92,9.13-7.53.61-.54.9-1.57,1.08-2.43.38-1.79-1.05-2.96-2.77-2.28-.68.27-1.29.79-1.84,1.29-1.81,1.62-3.55,3.31-5.37,4.93-.53.47-1.2.8-2.16.9.5-1.34,1.08-2.65,1.49-4.01.56-1.85,1.24-3.71,1.41-5.61.34-3.58-2.17-5.63-5.68-4.71-1.3.34-2.49,1.14-3.7,1.79-.69.37-1.32.87-2.36.99.29-.66.52-1.35.87-1.98,3.34-5.92,6.71-11.83,10.05-17.76.54-.96,1.09-1.95,1.41-2.99.74-2.38-.04-3.59-2.49-3.92-2.74-.38-4.94.66-6.4,2.99-2.76,4.4-5.61,8.76-8.07,13.33-2.75,5.12-5,10.51-7.68,15.67-.76,1.46-2.15,2.67-3.45,3.74-3.11,2.56-6.34,4.99-10.51,5.58-3.23.45-4.47-1.06-3.36-4.12,1.52-4.19,6.69-9.2,10.24-9Z"/>
    <path class="cls-4" d="m230.32,286.56c-.96,5.66-2.14,11.29-2.84,16.99-.93,7.5-1.44,15.04-2.23,22.56-.15,1.38-.49,2.89-1.22,4.05-7.56,12.03-15.23,24-24.78,34.61-4.25,4.72-8.88,9.01-15.07,11.09-5.9,1.98-11.47-.29-14.47-5.74-2.12-3.85-3.25-8.05-3.28-12.36-.2-29.92,7.29-57.26,27.63-80.09,5.83-6.54,12.92-11.52,20.75-15.46,1.61-.81,2.57-.59,3.62.87,2.23,3.09,4.57,6.11,7,9.05.97,1.17,1.17,2.3.71,3.62-1.86,5.28-3.3,10.77-5.72,15.79-3.83,7.98-8.28,15.66-12.55,23.42-1.16,2.11-1.13,3.83.42,4.98,1.51,1.13,3.4.73,4.86-1.14,6.13-7.84,10.39-16.71,14.17-25.84.9-2.16,1.74-4.35,2.61-6.52.12.04.25.09.37.13Z"/>
    <path class="cls-4" d="m277.75,291.32c-3.78.32-7.55.37-11.22,1-5.25.91-10.44,2.19-15.63,3.43-1.26.3-1.86-.02-2.79-.9-4.57-4.31-5.71-9.12-3.5-15.11,1.35-3.67,1.92-7.66,2.6-11.55.56-3.21-1.21-4.98-4.42-4.52-3.57.52-6.29,2.41-7.87,5.75-.29.61-.52,1.24-.98,2.33.97-7.03,1.3-13.43-3.86-18.68,3.03-.57,5.89-1.04,8.72-1.66,1.14-.25,2.29-.65,3.29-1.23.76-.44,1.28-1.29,1.91-1.95-.76-.41-1.51-1.16-2.27-1.18-3.03-.06-6.15-.28-9.09.29-2.99.58-5.8,2.04-8.7,3.1-.44.16-.9.3-1.35.35-1.72.18-3.53.04-5.15.53-2.16.64-3.28-.24-4.39-1.87-1.4-2.04-2.99-3.96-4.6-6.05,1.33-.9,2.42-1.74,3.62-2.37.4-.21,1.17-.07,1.6.19,3.04,1.87,4.2,1.65,6.62-.98,3.81-4.13,7.71-8.17,11.59-12.24.22-.23.51-.39,1.04-.37-.79,1.67-1.62,3.31-2.35,5-1.17,2.71-.96,4.29.62,5.45,1.78,1.31,4.08,1.15,6.12-.43,2.14-1.65,4.26-3.34,6.43-4.96,1.62-1.21,4.04,0,4.29,2.07.49,4.05,2.44,5.72,6.14,4.5,3.46-1.15,6.75-2.88,9.96-4.64,1.33-.73,2.22-2.33,1.26-3.94-.97-1.64-2.47-1.12-3.85-.41-1.57.81-3.13,1.62-4.92,2.54.4-2.89.75-5.46,1.1-8.06-.94-.22-1.57-.37-2.2-.51,3.21-.72,2.63-3.12,2.52-5.28-.06-1.25-.23-2.49-.23-3.74,0-1.75.26-3.56-2.59-4.07,4.68-1.36,4.75-5.66,7.56-8.46h-4c2.09-1.15,3.64-2.01,5.34-2.95,4.08,2.38,7.77.76,11.81-2.26.12,2.25.21,4.07.32,5.88.02.38.09.77.19,1.15.35,1.25.82,2.22.03,3.77-.66,1.28.11,3.38.47,5.06.29,1.33-.31,4.47-1.31,5.26.31.67.64,1.35.94,2.04.27.63.52,1.28.77,1.93-.2,0-.4.01-.61.02-.08,1.05-.39,2.16-.19,3.15.43,2.08-.47,4.37,1.03,6.26-1.11,1.06-.78,2.27-.44,3.53.4,1.45.69,2.92,1.03,4.38.08.34.27.7.2,1q-1.05,4.26-.57,8.74c-.16.91-.5,1.83-.45,2.72.11,1.77,1.03,3.72.53,5.24-.53,1.6-.44,3.03-.43,4.56,0,.57-.05,1.16.05,1.72.23,1.23,1.14,2.23-.09,3.71-.71.85-.28,2.75-.16,4.16.11,1.25,1.42,2.51-.19,3.68-.1.08-.06.4-.04.6.21,2.07.42,4.14.64,6.21.02.2.21.48.14.59-1.99,2.74.36,5.5-.07,8.47Z"/>
    <path class="cls-4" d="m194.44,221.4c-5.33-.7-6.9-5.51-9.76-8.9-.34-.41-.31-1.35-.12-1.94,4.09-12.51-2.52-21.68-14.26-25.49-2.1-.68-4.27-1.24-6.45-1.56-1.44-.21-2.38-.77-3.23-1.9-3.39-4.48-6.89-8.88-10.24-13.39-.54-.72-.95-2.07-.63-2.75.31-.67,1.65-1.21,2.53-1.2,27.76.32,55.51.72,83.27,1.11.2,0,.41.06,1.04.16-1.44,2.26-2.72,4.41-4.13,6.47-1.14,1.66-2.41,3.22-3.65,4.8-.82,1.04-.96,1.96.29,2.79.33.22.83.57.81.83-.25,3.02,1.81,3.7,4.73,4.17-1.09.68-1.78,1.05-2.4,1.5-4.52,3.3-9.5,6.15-13.4,10.08-3.18,3.21-5.25,7.61-7.49,11.66-4.42,7.99-8.3,16.25-10.63,25.19-2.73-2.56-2.69-2.71-.99-5.59,1.15-1.95,2.36-3.94,3.02-6.08.75-2.42-1.16-4-3.51-2.98-1.69.73-3.15,1.96-4.79,3.02Z"/>
    <path class="cls-4" d="m336.41,166.86c4.9,0,9.88-.05,14.87,0,19.56.23,39.12.5,58.68.75.42,0,.88-.1,1.24.04,1.02.4,2.41.66,2.86,1.43.34.6-.27,2.09-.88,2.85-9.2,11.38-18.48,22.71-27.73,34.05-3.11,3.82-6.21,7.65-9.37,11.42-.42.5-1.2,1.05-1.79,1.02-7.25-.36-12.05,3.5-15.57,9.22-2.27,3.67-3.64,7.67-1.51,12.02.15.3-.07.94-.32,1.25-3.92,4.85-7.87,9.67-12.09,14.37,1.1-3.63,2.15-7.28,3.36-10.88.24-.71,1.15-1.17,1.65-1.82,1.81-2.33,4.09-4.47,5.25-7.1,2.52-5.7.28-11.1-5.55-14.64-1.88-1.14-3.9-2.07-6.2-3.28.95-.46,1.7-.85,2.47-1.19,5.84-2.59,11.08-6.05,15.5-10.67,2.86-2.99,4.72-6.47,5.15-10.66.52-5.05-1.87-9.48-6.8-10.77-4.16-1.09-8.59-1.15-12.88-1.78-.91-.13-1.87-.6-2.58-1.19-2.17-1.81-4.15-3.85-6.37-5.6-1.11-.87-1.62-1.6-1.44-3.08.23-1.89.06-3.82.06-5.78Z"/>
    <path class="cls-4" d="m299.71,194.5c-.39,1.62,1.77,3.77,4.91,4.64-2.03,3.31-4.19,6.61-6.06,10.07-.35.64.35,2.67.8,2.75,1.12.21,2.54-.07,3.54-.66.91-.54,1.43-1.75,2.47-3.14.35,2.51.17,4.9,3.1,5.08-.6.1-1.2.21-2.25.38,2.55,1.86.9,3.74.34,5.59-.85,2.78-1.9,5.49-2.7,8.28-.38,1.32-1.03,1.98-2.29,2.59-2.91,1.41-5.96,2.79-8.4,4.84-6.78,5.66-5.52,13.57,2.57,17.2,4.37,1.96,9.03,2.75,13.78,2.59,2.16-.07,2.85.64,3.04,2.76.46,5.02,1.93,9.76,5.16,14.3-5.59-1.15-10.72-2.2-16.12-3.31,0,3.75-.04,7.32.07,10.89.01.38.89.93,1.45,1.05,3.64.83,7.3,1.57,10.56,2.25-.69,3.12-1.45,6.07-1.97,9.06-.18,1.05.32,2.2.27,3.29-.02.47-.75,1.35-1,1.3-3.3-.72-6.57-1.57-10.19-2.47.53-.99.87-1.7,1.28-2.36.25-.41.81-.7.9-1.12.29-1.29.93-2.83.49-3.86-.63-1.46-2.35-1.06-3.71-.66-3.03.89-5.59,2.49-7.17,5.29-.55.97-1.09,1.23-2.12,1.08-1.71-.25-3.44-.38-5.55-.61,1-2.14,1.91-4.1,2.63-5.65-1.66-3.33-1.42-6.24.2-8.8-2.07-3.08-.72-5.69.45-8.44-2.84-.78-.27-3.03-1.12-4.2-1.45-2,1.02-2.8.81-4.57-2.5-.65-.19-2.89-.94-4.07-1.35-2.11,1.21-3,.74-4.64-1.35-3.31-1.15-6.61.05-9.2-1.22-3.61-1.57-6.57.04-9.74-1.64-.36-1.76-1.38-1.45-2.76.12-.56-.35-1.26-1.03-1.84.59-1.54,1.19-3.08,1.84-4.77-.52-.28-1.04-.55-1.52-.8v-6.58c-.08.01-.15.03-.23.04-.16-.92-.37-1.83-.48-2.76-.2-1.79-.86-3.6.23-5.34-2.54-.96.51-3.71-1.55-4.83.32-.38.56-.95.97-1.11,3.52-1.38,5.2-3.95,5.25-7.7.01-1.27,2.21-2.32,3.66-1.77.9.35,1.75.86,2.65,1.2,1.17.44,2.37.79,3.61,1.19Z"/>
    <path class="cls-4" d="m187.51,235.95c-.19,1.86-.4,3.16-.43,4.47-.05,2.57,1.25,3.98,3.81,4.29,3.01.36,5.42-1.2,7.62-2.83,1.87-1.38,2.95-1.17,4.07.72.52.89,1.28,1.64,1.91,2.46,1.95,2.52,3.88,5.05,6.01,7.82-3.67.99-6.68,3.08-10.67,3.05-25.19-.17-50.38-.08-75.57-.08-1.1,0-2.2,0-3.53,0,1.15-4.41,2.24-8.55,3.32-12.69.42-1.6,1.62-1.77,3.05-1.9,5.73-.51,11.52-.74,17.15-1.8,12.47-2.35,23.65-7.48,32.55-16.85.91-.95,1.76-1.96,2.59-2.99.82-1.02,1.58-2.09,2.62-3.49,1.17,1.44,2.22,2.74,3.46,4.26-3.72,1.08-6.87,2.71-9.33,5.5-2.72,3.08-4.29,6.61-4.47,10.71-.2,4.61,3.27,7.11,7.53,5.19,2.23-1,4.15-2.72,6.2-4.14.61-.42,1.16-.93,2.12-1.71Z"/>
    <path class="cls-3" d="m123.27,239.86c-1.07,4.19-2.11,8.42-3.24,12.64-.2.73-.75,1.37-1.13,2.05-.69-.52-1.58-.91-2.03-1.58-1.4-2.11-1.74-4.49-1.22-6.98.42-2.03.81-4.06,1.19-5.95-1.98-.71-3.89-1.16-5.57-2.04-3.36-1.77-4.15-4.82-2.18-8.06,2.43-4,6.32-5.94,10.67-7,1.55-.38,2.25-1.11,2.76-2.57,2.94-8.26,6.6-16.17,11.77-23.32,2.63-3.64,5.78-6.56,10.34-7.56.13-.03.27-.13.4-.12,1.46.12,2.92.26,4.38.39-.72,1.01-1.43,2.03-2.17,3.02-2.32,3.11-4.96,6.03-6.9,9.35-3.61,6.21-6.82,12.65-10.37,19.33,3.89.24,7.18.33,10.44.66,6.01.62,12.12,1.33,17.44,4.32,2.67,1.5,4.23,1.04,6.29-.63,6.32-5.12,11.65-10.93,13.91-18.98,2.23-7.95-.84-14.75-8.55-17.73-3.81-1.47-8.02-2.31-12.11-2.61-10.12-.73-19.94.84-28.99,5.72-2.29,1.23-4.55,2.8-6.27,4.71-1.66,1.83-2.58,4.32-3.88,6.49-.32.54-.79,1.33-1.26,1.38-.52.06-1.41-.47-1.62-.96-.36-.83-.73-2.06-.37-2.72,1.22-2.2,2.44-4.57,4.25-6.24,5.24-4.83,11.8-7.18,18.61-8.76,9.83-2.29,19.74-3.23,29.65-.63,2.85.75,5.7,1.87,8.24,3.34,8.34,4.84,10.88,13.24,6.89,22.02-3.39,7.44-8.99,12.96-15.64,17.45-9.53,6.44-20.23,9.6-31.55,10.82-3.92.42-7.88.48-12.17.72Zm1.3-2.74c12.4.03,23.65-1.88,34.12-7.67-.26-.28-.37-.48-.55-.56-8.77-4.52-18.17-5.65-27.86-5.08-.48.03-1.19.56-1.36,1.02-1.46,3.94-2.82,7.92-4.35,12.28Zm-4.29-12.12c-2.05.95-3.68,1.51-5.09,2.41-1.91,1.22-4.26,2.64-3.69,5.25.58,2.67,3.23,3.13,5.62,3.48.11.02.24-.1.44-.19.84-3.37,1.68-6.79,2.71-10.94Z"/>
    <path class="cls-3" d="m396.89,240.66c1.02-.49,2.12-.85,3.03-1.49,2.64-1.84,5.02-3.63,5.98-7.23,1.72-6.5,9.5-11.81,15.75-11.51,3.3.16,5.3,3.1,4.1,6.13-.24.6-.82,1.06-1.24,1.58-.19-.07-.37-.13-.56-.2-.06-.78-.22-1.57-.17-2.34.08-1.43-.69-1.97-1.91-1.73-1.41.28-2.89.61-4.12,1.3-3.45,1.94-5.83,4.89-7.14,8.63-1.5,4.3.65,7.07,5.1,6.15,2.64-.55,5.2-1.86,7.56-3.24,4-2.34,6.95-5.5,8.83-10.04,3.75-9.04,8.4-17.65,14.14-25.64,1.27-1.77,2.91-2.54,5.02-2.23.68.1,1.32.53,1.8.73-5.56,10.15-11,20.09-16.44,30.02.2.12.39.24.59.35,2.56-1.93,5.11-3.87,7.69-5.79.61-.45,1.27-1.1,1.94-1.15,1.51-.09,3.36-.34,4.44.4.75.51.85,2.67.52,3.91-.7,2.67-1.94,5.19-2.8,7.82-.26.82.01,1.81.04,2.72.84-.23,1.83-.24,2.48-.72,1.94-1.44,3.77-3.05,5.6-4.63.84-.72,1.52-1.65,2.42-2.28.44-.31,1.2-.16,1.82-.22-.16.55-.15,1.28-.5,1.61-2.52,2.29-5.01,4.62-7.72,6.66-1.39,1.05-3.14,1.79-4.84,2.25-2.91.79-4.83-.8-4.59-3.83.14-1.75.78-3.49,1.4-5.16.78-2.11,1.77-4.13,2.67-6.19l-.49-.45c-1,.64-2.1,1.18-3,1.94-5.08,4.27-9.45,9.18-13.08,14.74-.26.41-.4,1-.77,1.21-.82.48-2.27,1.29-2.53,1.04-.77-.78-1.55-2.02-1.49-3.04.08-1.44.89-2.84,1.39-4.26-2.58,1.41-4.98,2.97-7.57,4.06-2.01.84-4.24,1.3-6.42,1.54-3.72.41-6.94-.51-8.4-4.24-2.8,1.64-5.43,3.43-8.26,4.79-3.52,1.69-5.28.39-4.67-3.48.46-2.89,1.5-5.7,2.39-8.92-1.25,1.13-2.28,2.09-3.35,3-2.16,1.85-4.28,3.76-6.55,5.47-1.14.86-2.51,1.52-3.87,1.94-2.52.77-4.04-.4-4.2-3.01-.03-.48,0-.97,0-1.83-.77.53-1.36.93-1.94,1.34-2.97,2.07-5.94,4.1-9.65,4.66-5.45.81-8.88-2.57-7.74-7.98,1.48-7,5.73-11.7,12.58-13.96.2-.07.4-.16.6-.17,2.21-.16,4.72-.68,6.05,1.61,1.33,2.3-.49,4.15-2.06,5.33-3.41,2.56-7.03,4.89-10.74,7-1.49.84-1.79,1.74-1.52,3.12.28,1.44,1.13,2.5,2.66,2.42,1.28-.06,2.7-.25,3.79-.86,2.72-1.51,5.33-3.23,7.89-4.99.61-.42.94-1.32,1.29-2.05,2.96-6.16,7.74-9.69,14.64-9.93,1.46-.05,3.07.36,4.39,1,1.24.6,1.95.43,2.89-.4,1.03-.91,2.17-1.75,3.39-2.37.54-.28,1.39.05,2.1.11-.06.65.08,1.41-.21,1.93-.87,1.57-2.04,2.99-2.87,4.58-1.92,3.68-3.76,7.41-5.52,11.16-.41.87-.4,1.94-.58,2.91.17.13.35.25.52.38Zm-15.58-2.47c5.83-3.29,10.06-8.31,15.05-12.82-2.72-1.57-4.86-.56-6.74.87-4.03,3.07-7.45,6.62-8.31,11.96Zm-17.67-6.3c4.23-2.18,8.11-4.45,11.15-8.36-4.27-.5-10.21,4.03-11.15,8.36Z"/>
    <path class="cls-3" d="m299.39,210.86c.32-.99.47-2.06.97-2.94,3.96-6.96,9.84-11.96,16.72-15.82,11.04-6.19,22.91-9,35.55-8.22,2.12.13,4.27.6,6.29,1.28,5.23,1.76,7.61,6.17,5.64,11.34-1.15,3.01-3.04,5.96-5.25,8.32-5.31,5.67-12.08,9.22-19.32,11.87-.51.19-1.02.39-1.92.73,1.64.53,3.02.79,4.22,1.39,3.06,1.56,6.32,2.92,9,5.02,3.94,3.09,4.7,7.53,1.88,11.69-1.98,2.91-4.64,5.54-7.46,7.67-7.63,5.76-16.6,8.12-25.93,9.28-6.76.84-13.57,1.47-20.24-.46-2.34-.68-4.71-1.78-6.62-3.26-3.53-2.73-3.91-6.64-1.41-10.35,2.57-3.82,6.52-5.74,10.62-7.32,1.51-.58,2.21-1.39,2.77-2.89,3.99-10.77,8.12-21.5,12.21-32.24.12-.31.24-.61.06-1.25-1.84,1.36-3.89,2.51-5.47,4.13-3.33,3.4-6.41,7.05-9.6,10.59-.6.67-1.22,1.31-1.83,1.97-.3-.17-.59-.35-.89-.52Zm4.03,22.13c-3.39.58-7.4,3.13-9.34,5.79-2.42,3.32-1.93,6.81,1.76,8.53,2.89,1.35,6.14,2.4,9.3,2.6,11.42.75,22.34-1.62,32.73-6.36,4.32-1.97,8.31-4.54,11.08-8.54,2.76-3.98,2.04-8.02-2.09-10.54-2.27-1.39-4.82-2.54-7.4-3.15-3.69-.88-7.52-1.13-11.27-1.77-.66-.11-1.21-.87-1.81-1.32.5-.55.96-1.15,1.53-1.62.29-.24.78-.25,1.18-.35,7.15-1.94,14.41-3.58,20.84-7.51,4.39-2.69,8.18-6.01,10.48-10.71,2.05-4.19.84-7.81-3.26-9.74-1.66-.78-3.52-1.37-5.34-1.59-9.18-1.09-17.92.89-26.39,4.26-.6.24-1.06,1.22-1.3,1.95-.49,1.5-.6,3.14-1.18,4.6-4,10.19-8.07,20.35-12.11,30.52-.18.47-.25.98-.36,1.4,2.93.21,5.77.09,8.44.68,3.69.82,7.27,2.12,10.85,3.35.47.16.65,1.15.96,1.75-.67.01-1.52.3-2,0-5.12-3.17-10.83-3.52-16.62-3.69-1.89-.05-2.89.67-3.43,2.51-1.17,3.98-2.5,7.93-3.83,11.86-.2.59-.77,1.05-1.17,1.57-.54-.47-1.47-.88-1.55-1.42-.34-2.2-.73-4.47-.52-6.66.2-2.09,1.12-4.12,1.8-6.4Z"/>
    <path class="cls-4" d="m138.74,190.48c-8.22,7.53-12.62,17.38-16.56,27.47-.89,2.27-1.8,3.74-4.45,4.39-3.58.87-6.77,2.86-9,5.98-3.28,4.61-2.09,8.99,3.03,11.38,1.2.56,2.91.91,3.4,1.86.47.93-.25,2.52-.57,3.8-.97,3.96.08,7.34,3.01,10.36h-12.44v-73.09h50.29c-7.63.21-15.1,1.35-22.4,3.61-5.14,1.59-10.06,3.71-14.09,7.31-1.95,1.75-3.6,4.02-4.83,6.35-1.39,2.63-.12,5.49,2.25,6.17,1.35.39,2.54.18,3.03-1.33,1.76-5.41,5.78-8.71,10.59-11.16,2.75-1.4,5.67-2.45,8.51-3.67.08.19.15.37.23.56Z"/>
    <path class="cls-4" d="m133.01,220.34c.16-.61.18-1.05.37-1.38,4.04-7.1,8.05-14.22,12.19-21.26.79-1.35,2.02-2.46,3.15-3.59,1.65-1.65,2.48-3.46,1.42-5.97,3.31,0,6.47-.06,9.62.05.56.02,1.21.65,1.61,1.17,4.78,6.11,9.55,12.24,14.25,18.41.33.43.45,1.32.23,1.8-3.05,7.01-8.11,12.32-14.34,16.58-.34.24-1.08.26-1.45.05-6.37-3.63-13.46-4.52-20.55-5.34-2.11-.24-4.23-.34-6.49-.52Z"/>
    <path class="cls-3" d="m192.13,240.9c1.49-.64,2.44-.87,3.17-1.4,1.95-1.44,3.84-2.96,5.67-4.55.48-.41.78-1.14.95-1.77,3.44-12.74,9.58-24.18,16.68-35.17,1.08-1.67,2.62-2.49,4.53-2.48.74,0,1.72.37,2.13.92.28.38-.06,1.43-.39,2.04-4.72,8.79-9.62,17.5-14.19,26.37-1.89,3.67-3.17,7.66-4.58,11.56-.26.71.19,1.67.32,2.51.82-.2,1.89-.14,2.41-.64,3.09-2.96,6.2-5.92,9.01-9.13,2.32-2.65,4.13-5.74,6.38-8.46,1.42-1.71,3.58-1.37,4.14.47.2.64.03,1.51-.24,2.15-.51,1.2-1.21,2.32-1.56,3.78,1.53-1.28,3.01-2.63,4.6-3.84,2.2-1.67,4.44-3.31,6.75-4.82,1.35-.88,2.89-1.1,4.22.16,1.29,1.23.67,2.53.02,3.81-1.57,3.07-3.14,6.14-4.47,9.51.65-.42,1.3-.86,1.96-1.26,3.14-1.9,6.25-3.85,9.45-5.65.93-.52,2.09-.78,3.17-.86,2.03-.15,2.99,1,2.54,2.99-.42,1.82-1.1,3.58-1.47,5.41-.15.72.02,1.74.47,2.25.26.3,1.44,0,2.08-.29,2.13-1.01,4.17-2.21,6.31-3.19.62-.28,1.48-.04,2.23-.04-.42.62-.7,1.51-1.29,1.81-3.14,1.61-6.3,3.2-9.58,4.5-1.06.42-2.92.4-3.61-.26-.66-.63-.5-2.39-.29-3.59.28-1.62,1-3.17,1.45-4.77.23-.82.3-1.69.55-3.21-2.77,1.57-5.07,2.68-7.16,4.1-2.81,1.91-5.45,4.05-8.18,6.08-.66.5-1.31,1.19-2.06,1.35-.78.17-1.91.06-2.45-.42-.51-.45-.83-1.7-.57-2.33,1.06-2.55,2.35-5,3.6-7.47.93-1.83,1.93-3.61,2.9-5.42-.14-.12-.27-.24-.41-.35-1.26.9-2.66,1.66-3.74,2.74-5.02,4.98-9.95,10.04-14.91,15.08-.94.95-1.59,2.46-3.37,1.67-1.75-.77-1.57-2.24-1.19-4.06-1.29,1.06-2.32,2.01-3.45,2.81-1.07.75-2.18,1.54-3.4,1.95-2.83.97-4.36-.19-5.72-4.16-1.74,1.25-3.43,2.52-5.18,3.7-.8.54-1.69.97-2.58,1.34-1.52.63-3.37,1.82-4.59.28-.82-1.03-.93-3.01-.66-4.44.49-2.61,1.5-5.11,2.37-7.93-3.33,2.83-6.37,5.56-9.58,8.06-1.33,1.04-2.96,1.85-4.58,2.33-2.34.68-3.73-.52-3.89-2.95-.58-8.81,8.09-17.26,16.89-16.42.82.08,1.78.13,2.4.57,1.93,1.38,3.34.72,4.83-.73.78-.76,1.78-1.34,2.78-1.77.45-.19,1.28,0,1.67.34.26.22.23,1.08.03,1.51-.44.94-1.12,1.75-1.61,2.67-2.29,4.27-4.61,8.52-6.79,12.85-.52,1.03-.53,2.32-.91,4.13Zm.23-15.61c-3.46-1.61-5.75,0-7.94,1.72-4.6,3.65-7.71,8.69-6.94,11.45,5.58-3.6,9.78-8.6,14.88-13.18Z"/>
    <path class="cls-3" d="m259.33,145.72c3.15-.8,5.85-1.47,8.54-2.19,3.82-1.02,8.61.92,10.1,4.69,1.23,3.11,2.06,6.46,2.48,9.78.63,4.91.2,9.82-1.3,14.6-1.35,4.29-4.65,6.89-8.26,8.87-4.06,2.22-10.05-.11-12.32-4.83-1.4-2.92-2.31-6.28-2.54-9.52-.56-7.57,1.99-14.74,3.32-21.4Zm13.98,14.18c-.18-.03-.35-.05-.53-.08-.1-1.73-.04-3.49-.33-5.18-.38-2.16-.8-4.38-1.66-6.38-.86-2-2.4-1.91-3.55-.05-.29.47-.52.98-.7,1.5-2.68,7.75-3.59,15.63-1.6,23.69.43,1.72.75,3.92,2.99,3.96,2.17.04,2.94-2.05,3.27-3.78.86-4.53,1.43-9.12,2.12-13.68Z"/>
    <path class="cls-3" d="m239.57,175.86h11.05c.2,1.73.45,3.35.52,4.98.02.43-.46,1.16-.85,1.29-1.24.39-2.55.75-3.84.78-4.28.1-8.57.03-12.85.05-1.64,0-2.58-.44-2.47-2.42.04-.78-.95-1.62-1.26-2.09,3.99-6.7,8.08-13.42,11.98-20.24,1.01-1.77,1.55-3.84,2.12-5.82.25-.89.22-1.97-.04-2.85-.2-.67-.9-1.43-1.55-1.64-.49-.16-1.44.33-1.84.82-2.38,2.92-3.93,6.18-3.65,10.08.02.34,0,.67,0,.86-1.56.45-2.96.96-4.41,1.24-.64.12-1.83-.02-1.97-.37-.59-1.46-1.17-3.05-1.19-4.59-.02-1.06.97-2.11,1.35-3.21.82-2.35,1.5-4.74,2.34-7.08.19-.54.73-1.28,1.19-1.35,2.87-.4,5.77-.86,8.66-.89,6.88-.06,11.04,5.8,8.87,12.39-.53,1.62-1.43,3.15-2.34,4.61-3.14,5.05-6.36,10.05-9.81,15.46Z"/>
    <path class="cls-3" d="m292.32,159.81c-1.24.23-2.26.32-3.22.62-1.14.35-2.28,1.43-3.35.03-1.08-1.42-1.76-2.99-1.02-4.83.98-2.44,2.32-4.8,2.83-7.33.63-3.11,1.97-4.62,5.23-4.52,2.34.08,4.72-.53,7.03-.3,5.82.58,9.24,6.36,7.32,12.24-.53,1.62-1.41,3.16-2.32,4.62-2.89,4.65-5.86,9.25-8.8,13.87-.28.45-.52.92-.94,1.66h10.98c.18,2.1.34,4,.54,6.31-2.02.26-3.97.68-5.93.74-3.93.12-7.88.04-11.81.04-1.56,0-2.4-.48-2.36-2.33.02-.86-.96-1.75-1.22-2.18,4.02-6.77,8.11-13.5,12.02-20.34,1.01-1.77,1.54-3.85,2.08-5.84.24-.88.15-1.95-.08-2.85-.49-1.92-2.08-2.29-3.34-.77-2.67,3.21-4.14,6.86-3.64,11.17Z"/>
    <path class="cls-3" d="m319.82,157.03c-.86.2-1.89.51-2.94.67-.95.14-2.3.51-2.79.05-.73-.69-1.34-2.13-1.13-3.05.8-3.5,1.93-6.93,3-10.37.11-.35.65-.82.99-.82,3.33-.03,6.68-.24,9.97.13,3.24.36,6.14,1.95,7.08,5.31,1.08,3.85-.12,7.4-2.64,10.46-.38.46-.96.76-1.02.8,1.6,2.38,3.26,4.32,4.3,6.55,1.39,2.96.86,6.07-.92,8.74-3.04,4.57-7.4,6.98-12.95,7.03-2.25.02-4.06-.96-5.32-2.76-1.99-2.86-2.96-6.07-2.95-9.68,2.55-.72,5.05-1.43,7.85-2.22.17,2.2.33,4.11.47,6.03.18,2.46.94,3.43,2.93,3.54,2.12.12,2.74-1.36,2.91-3.06.22-2.2.45-4.41.4-6.61-.06-2.62-1.17-3.53-3.8-3.57-.35,0-.75.11-1.03-.03-.87-.43-1.69-.95-2.53-1.44.58-.71,1.05-1.87,1.75-2.04,3.33-.77,4.41-3.05,4.53-6.08.08-1.86.33-3.78-.08-5.54-.21-.91-1.7-1.52-2.61-2.26-.5.65-1.25,1.24-1.46,1.97-.76,2.7-1.34,5.44-2.01,8.27Z"/>
    <path class="cls-4" d="m247.91,210.1c-5.88-1.26-4.43,4.16-6.46,6.49-4.78-.27-7.73,3.34-11.36,5.75-.14-.33-.25-.58-.34-.83-1.16-3.44-4.28-4.19-6.64-1.39-2.18,2.59-3.89,5.58-6.07,8.17-2.45,2.9-5.18,5.56-7.82,8.29-.36.37-.92.55-1.79,1.05.31-1.24.38-2.14.74-2.9,3.37-7.08,6.75-14.16,10.27-21.16.46-.91,1.71-1.54,2.73-2.01,2.37-1.08,4.82-1.98,7.62-3.1-1.71-1.34-3.04-2.38-4.37-3.42.04-.18.09-.35.13-.53,2.69.14,5.38.28,8.29.42-.23,2.85-.43,5.43-.67,8.42,1.27-1.62,2.1-3.1,3.31-4.15,2.02-1.76,4.2-3.38,6.48-4.79,1.06-.66,1.46-1.24,1.31-2.43-.23-1.91-.33-3.83-.5-5.95,2.6-.28,4.97-.54,7.49-.82.23-2.86,3.98-1.71,5.63-3.86-1.29-.77-2.6-1.56-3.92-2.35l.24-.65c1.48.5,2.95,1.01,3.81,1.3,3.41-.57,6.39-1.06,9.36-1.56.13.19.27.38.4.57-1.48,1.28-2.79,2.86-4.46,3.79-5.33,2.95-10.22,6.42-14.22,11.06-.5.58-.98,1.17-1.4,1.81-.81,1.22-1.23,2.37.64,3.11.54.21.95.74,1.42,1.13.04.18.09.37.13.55Z"/>
    <path class="cls-4" d="m236.57,341.56c-.28-1.86-.77-3.29-.65-4.67.68-7.73,1.34-15.47,2.34-23.16.79-6.05,2.06-12.03,3.13-18.04.09-.52.26-1.04.55-2.12,4.08,5.25,7.88,10.14,11.76,15.14-3.26,3.8-5.54,8.02-6.76,12.78-.26,1.01-.56,2.02-.63,3.05-.43,6.43-4.44,11.02-8.02,15.84-.27.36-.76.54-1.71,1.19Z"/>
    <path class="cls-4" d="m281.23,329.27c.21-2.94.11-5.95.68-8.82,1.49-7.47,3.22-14.9,4.97-22.32.54-2.28,2.41-1.06,3.89-1.26.01,4.76,1.37,9,3.4,13.07.2.41.22,1.12,0,1.49-3.24,5.31-6.53,10.59-9.82,15.87-.59.95-1.17,1.9-1.75,2.85-.45-.3-.91-.59-1.36-.89Z"/>
    <path class="cls-4" d="m256.79,305.96c-2.34-3.03-4.6-5.95-7.06-9.13h28.28c-1.03,1.59-1.88,2.89-2.81,4.32-6.85-1.73-12.71.7-18.41,4.82Z"/>
    <path class="cls-4" d="m331.48,182.42c.55,1.64.15,2.39-1.44,3-4.56,1.76-9.04,3.75-13.54,5.68-.8.34-1.42,1.01-2.31-.07-.31-.38-1.49-.06-2.07-.49-.9-.45-1.75-1.03-2.7-1.31-1.65-.48-2.76-2.58-2.38-4.97.3-1.91,1.56-2.42,3.33-2.15,4.85.74,9.72,1.38,14.55,2.22,2.16.37,3.95-.04,5.58-1.44.24-.2.58-.28.97-.46Z"/>
    <path class="cls-4" d="m254.56,165.5c.28,2.4.53,4.51.77,6.5-3.74,2.95-7.95,2.93-12.67,2.43,1.85-2.87,3.5-5.56,5.32-8.14.35-.49,1.32-.69,2.02-.75,1.44-.11,2.89-.03,4.57-.03Z"/>
    <path class="cls-4" d="m325.84,166.27v4.84c-2.06-.29-4.32.23-4.39-2.9,0-.42-1.3-1.28-1.8-1.15-2.88.69-6.01.75-8.43,2.85-.27.24-.76.29-1.15.34-2.48.27-4.97.53-7.45.75-.43.04-1.16-.03-1.27-.27-.19-.41-.13-1.06.06-1.5.91-2.05,2.23-3.12,4.79-3.03,6.43.23,12.88.07,19.65.07Z"/>
    <path class="cls-4" d="m332.54,270.1c4.13-6.15,6.7-12.93,8.69-19.96.56-1.98,1.68-3.2,4.01-3.78-2.01,9.35-5.9,17.34-12.7,23.73Z"/>
    <path class="cls-4" d="m315.45,273.34c-.31,2.59-.57,4.83-.87,7.35-1.68-.34-3.18-.56-4.61-.99-.41-.12-.88-.85-.91-1.33-.1-1.93-.04-3.87-.04-6.36,2.29.47,4.23.88,6.42,1.33Z"/>
    <path class="cls-4" d="m348.62,268.75c-.04,2.12-2.21,4.19-4.39,4.18-1.88,0-3.13-1.34-3.13-3.37,0-2.05,2.08-4.07,4.21-4.08,1.87,0,3.35,1.45,3.31,3.27Z"/>
    <path class="cls-4" d="m333.98,251.96c-1.81,6.2-3.63,12.4-6.8,18.1-.17-.05-.34-.1-.51-.15,1.16-5.46,2.2-10.95,3.57-16.35.24-.96,1.88-1.57,2.87-2.33.29.25.58.5.87.74Z"/>
    <path class="cls-4" d="m177.36,203.22c-3.55-4.6-6.83-8.84-10.23-13.25,5.8.32,10.85,6.76,10.23,13.25Z"/>
    <path class="cls-4" d="m339.16,250.03c-1.87,7.12-4.64,13.83-9.24,19.71,1.62-4.46,3.26-8.9,4.84-13.37.55-1.56.81-3.25,1.5-4.74.41-.88,1.42-1.47,2.17-2.19.24.2.49.4.73.6Z"/>
    <path class="cls-4" d="m326.22,253.51c-1.12,5.49-2.21,10.78-3.29,16.07-.18,0-.37,0-.55-.01-.11-1.86-.31-3.73-.29-5.59.03-2.55.2-5.11.39-7.65.19-2.58.48-2.8,3.74-2.81Z"/>
    <path class="cls-4" d="m305.31,304.14c-1.32-2.5-2.45-4.64-3.75-7.09h9.49c-1.93,2.38-3.66,4.52-5.74,7.09Z"/>
    <path class="cls-4" d="m303.47,270.85c1.36.28,2.38.41,3.34.74.41.14.94.69.96,1.08.09,2.12.04,4.25.04,6.62-1.28-.25-2.01-.45-2.75-.52-1.19-.12-1.66-.7-1.61-1.92.08-1.9.02-3.82.02-5.99Z"/>
    <path class="cls-4" d="m316.79,273.62c1.81.38,3.27.69,4.68.98.29,3.76-.03,4.15-5.46,6.49.27-2.56.51-4.86.79-7.47Z"/>
    <path class="cls-4" d="m293.23,161.66c.57-4.25.68-8.74,4.59-11.78,1.17,2.78-2.26,11.27-4.59,11.78Z"/>
    <path class="cls-4" d="m242.86,149.79c.29,4.65-2.05,7.98-4.17,11.8-1.34-4.09,1.03-10.15,4.17-11.8Z"/>
    <path class="cls-4" d="m221.52,260.27c4.21-.9,6.49,2.19,5.49,7.19-1.87-2.44-3.58-4.69-5.49-7.19Z"/>
    <path class="cls-4" d="m319.8,267.69c-1.12-4.03-1.45-8.15-1.19-12.33.02-.37.67-.7,1.02-1.05.3.38.84.75.85,1.13.06,4.08.04,8.16.04,12.24-.24,0-.48,0-.72.01Z"/>
    <path class="cls-4" d="m317.23,266.68c-1.8-3.32-2.59-6.93-2.83-10.66-.03-.43.58-.9.89-1.36.42.43,1.15.83,1.19,1.3.32,3.57.51,7.15.75,10.72Z"/>
    <path class="cls-4" d="m328.23,276.1c-1.27,1.49-2.27,2.66-3.27,3.84-.11-.07-.22-.13-.32-.2.31-1.38.62-2.76.97-4.32.94.24,1.66.43,2.63.68Z"/>
    <path class="cls-4" d="m194.34,238.01c.49-1.12.99-2.24,1.65-3.74.78.74,1.26,1.19,1.98,1.89-1.28.9-2.22,1.57-3.17,2.23-.16-.12-.31-.25-.47-.37Z"/>
    <path class="cls-4" d="m282.04,168.21c-.35-2.36.11-2.62,3.51-1.95-1.29.72-2.37,1.32-3.51,1.95Z"/>
    <path d="m273.4,307.38c-4.72,8.14-9.35,16.16-14.02,24.16-.52.89-1.16,1.73-1.88,2.47-.44.45-1.13.65-1.71.97-.3-.65-.85-1.3-.84-1.95,0-1.58.11-3.19.46-4.73,1.27-5.59,3.41-10.86,6.83-15.46,1.45-1.96,3.38-3.65,5.34-5.13,1.58-1.2,3.57-1.5,5.83-.32Zm-12.31,11.05c-2.87,4.34-5.1,11.7-4.35,15.14,2.45-4,4.64-7.56,6.79-11.15.15-.25.04-.82-.16-1.1-.67-.95-1.43-1.83-2.28-2.88Zm9.74-9.43c-.19-.2-.38-.41-.57-.61-1.38.94-2.89,1.74-4.13,2.85-3.14,2.82-3.1,3.08-.39,6.27.07.08.22.1.46.21,1.54-2.9,3.08-5.8,4.62-8.71Z"/>
    <path d="m300.89,320.65c.38,2.13.8,3.79.97,5.49.63,6.55.34,13.02-2.37,19.15-1.35,3.05-3.25,5.64-6.54,6.88-3.65,1.37-6.33-.32-6.29-4.23.02-2.05.24-4.19.89-6.11,2.68-7.95,8.01-14.27,13.35-21.18Zm-.1,4.52c-.29-.05-.57-.11-.86-.16-4.57,5.89-9.17,11.76-11.39,19.06-.45,1.49-.54,3.14-.5,4.71.05,2,1.52,3.26,3.35,2.53,1.9-.76,3.89-1.94,5.17-3.49,2.95-3.58,3.91-8.05,4.19-12.58.21-3.34.04-6.71.04-10.07Z"/>
    <path d="m308.32,344.51c2.47-4.91,3.53-10,3.28-15.38-.03-.58.13-1.28.46-1.75,3.01-4.38,6.08-8.72,9.14-13.07.2.04.39.08.59.12.32,1.72.77,3.43.92,5.17.59,6.48.31,12.88-2.36,18.96-1.38,3.12-3.3,5.79-6.7,6.99-1.87.66-3.66.67-5.32-1.03Zm13.3-26.02c-.32-.06-.64-.12-.96-.17-3.1,5.09-8.65,8.93-7.81,16.02.02.2-.05.41-.09.61-.68,3.15-1.36,6.3-2.05,9.45,2.25.69,4.78-.47,6.74-3.19,2.73-3.77,3.84-8.12,4.12-12.65.21-3.35.04-6.71.04-10.07Z"/>
    <path d="m310.94,323.28c-.99-3.43-1.98-6.78-2.9-10.14-.1-.37.11-.95.37-1.28,2.41-3.02,4.87-6,7.61-9.35,1.42,2.74,2.72,5.19,3.93,7.7.18.38.07,1.11-.19,1.47-2.89,3.87-5.84,7.69-8.83,11.61Zm5.29-17.99c-2.33,2.89-4.33,5.32-6.26,7.8-.24.31-.25.94-.14,1.37.48,1.91,1.04,3.8,1.66,6.03,2.51-3.23,4.83-6.21,7.12-9.21.18-.23.26-.71.14-.96-.72-1.53-1.5-3.02-2.52-5.04Z"/>
    <path d="m124.57,237.12c1.53-4.37,2.89-8.35,4.35-12.28.17-.46.87-.99,1.36-1.02,9.69-.57,19.09.55,27.86,5.08.17.09.28.29.55.56-10.47,5.79-21.72,7.69-34.12,7.67Zm31.39-7.57c-.24-.27-.31-.42-.43-.47-7.39-3.19-15.14-4.28-23.13-3.73-.7.05-1.66.38-1.99.9-1.8,2.86-2.73,6.06-3.49,9.63,10.34-.07,19.93-1.79,29.03-6.33Z"/>
    <path d="m120.29,225c-1.03,4.15-1.88,7.57-2.71,10.94-.2.09-.33.21-.44.19-2.39-.35-5.05-.82-5.62-3.48-.57-2.61,1.78-4.03,3.69-5.25,1.41-.9,3.04-1.46,5.09-2.41Zm-3.7,10.52c.59-2.84,1.01-4.86,1.56-7.51-1.34.81-2.23,1.13-2.8,1.74-.86.91-2.24,2.19-2.05,3.02.21.97,1.86,1.63,3.3,2.74Z"/>
    <path d="m381.32,238.18c.86-5.33,4.28-8.89,8.31-11.96,1.88-1.43,4.01-2.44,6.74-.87-4.99,4.51-9.21,9.54-15.05,12.82Zm3.56-4.83c.21.21.42.43.62.64,2.23-2.13,4.46-4.26,6.69-6.38-.21-.21-.41-.43-.62-.64-2.23,2.13-4.46,4.26-6.69,6.39Z"/>
    <path d="m363.65,231.88c.94-4.32,6.87-8.86,11.15-8.36-3.03,3.91-6.92,6.18-11.15,8.36Z"/>
    <path d="m303.42,232.99c-.67,2.29-1.59,4.31-1.8,6.4-.21,2.19.18,4.46.52,6.66.08.54,1.01.95,1.55,1.42.4-.52.97-.98,1.17-1.57,1.33-3.94,2.66-7.88,3.83-11.86.54-1.84,1.54-2.56,3.43-2.51,5.78.16,11.49.51,16.62,3.69.48.3,1.32.01,2,0-.31-.6-.49-1.59-.96-1.75-3.58-1.23-7.17-2.54-10.85-3.35-2.67-.59-5.5-.47-8.44-.68.11-.43.18-.94.36-1.4,4.04-10.17,8.11-20.33,12.11-30.52.57-1.46.69-3.1,1.18-4.6.24-.73.69-1.71,1.3-1.95,8.47-3.37,17.21-5.35,26.39-4.26,1.82.22,3.67.8,5.34,1.59,4.1,1.93,5.3,5.55,3.26,9.74-2.3,4.7-6.09,8.02-10.48,10.71-6.43,3.94-13.69,5.57-20.84,7.51-.4.11-.89.11-1.18.35-.57.47-1.03,1.07-1.53,1.62.6.46,1.15,1.21,1.81,1.32,3.75.65,7.58.89,11.27,1.77,2.58.62,5.12,1.77,7.4,3.15,4.13,2.52,4.84,6.56,2.09,10.54-2.78,4-6.76,6.57-11.08,8.54-10.39,4.73-21.31,7.1-32.73,6.36-3.16-.21-6.41-1.25-9.3-2.6-3.69-1.73-4.18-5.21-1.76-8.53,1.94-2.66,5.95-5.2,9.34-5.79Zm32.13,8.01c1.51.1,3.11.71,4.16.19,3.63-1.79,6.85-4.24,8.91-7.86,1.51-2.65,1.02-5.49-1.58-7.13-2.37-1.49-4.99-2.77-7.68-3.47-3.53-.92-7.23-1.19-10.85-1.74-1.68-.25-3.19-.77-3.24-2.83-.05-1.96,1.34-2.43,2.94-2.87,6.8-1.85,13.73-3.36,19.96-6.87,4.55-2.57,8.44-5.82,11-10.45,1.61-2.9,1.34-5.75-.75-7.38-2.94-2.3-6.38-2.72-10.03-2.5.26,3.2.5,6.22.74,9.23-2.77-2.35-4.89-4.82-7.24-7.04-.8-.76-2.3-1.44-3.26-1.23-3.84.87-7.62,2.04-11.38,3.25-.72.23-1.46,1.09-1.75,1.83-1.59,4.13-2.8,8.42-4.64,12.42-.91,1.99.69,4.59-1.74,6.02-.02.01.02.11.04.23.47.04.95.09,1.41.13-1.57,5.66-6.62,9.39-7.71,14.82,4.81,1.04,9.46,2.08,14.12,3.03.51.1,1.19-.16,1.68-.44,2.52-1.44,4.78-1.44,6.8.09,2.02,1.53,2.93,4.37,2.04,6.92-.4,1.15-1.15,2.17-1.96,3.64Zm-23.47,7.72c.22-2.18.37-4.25.65-6.31.27-2.02.67-4.02,1.02-6.09,4.49.91,8.58,1.73,12.61,2.54.32-3.57-1.71-4.6-4.46-4.91-2.61-.3-5.22-.61-7.84-.87-2.26-.22-3.63.78-4.32,3-1.28,4.16-2.71,8.29-4.15,12.63h6.48Zm-11.1-12.64c-2.84,1.22-5.08,2.95-6.45,5.63-.66,1.29-.54,2.56.57,3.6,1.89,1.78,4.18,2.62,7.02,2.98-2.98-3.99-2.3-8.02-1.14-12.22Zm17.26,3.34c-1.01-.22-1.85-.4-3.06-.65-.4,3.36-.77,6.51-1.17,9.96,1.27-.2,2.1-.33,2.92-.46.44-2.99.86-5.77,1.31-8.85Zm6.57,1.33c-.39,2.25-.72,4.22-1.08,6.3,4.46-.85,4.82-1.28,4.73-5.51-1.08-.23-2.2-.48-3.65-.79Zm-5.83,7.01c.2.16.41.33.61.49.72-.53,1.87-.92,2.08-1.6.59-1.96.79-4.03,1.18-6.23-.94-.19-1.7-.35-2.69-.55-.42,2.8-.8,5.35-1.19,7.91Zm16.43-4.34c0-.15.01-.3.02-.45-.93-.18-1.85-.36-2.97-.58-.14.82-.25,1.43-.42,2.37,1.35-.54,2.36-.93,3.36-1.33Z"/>
    <path d="m192.36,225.3c-5.1,4.58-9.29,9.57-14.88,13.18-.77-2.77,2.34-7.81,6.94-11.45,2.18-1.73,4.48-3.34,7.94-1.72Zm-11.57,8.02c.2.23.4.45.61.68l6.69-6.38c-.2-.21-.4-.42-.6-.63-2.23,2.11-4.47,4.22-6.7,6.33Z"/>
    <path d="m273.31,159.9c-.69,4.56-1.27,9.15-2.12,13.68-.33,1.73-1.1,3.82-3.27,3.78-2.24-.04-2.56-2.24-2.99-3.96-1.99-8.06-1.08-15.94,1.6-23.69.18-.52.42-1.03.7-1.5,1.15-1.87,2.7-1.95,3.55.05.85,2,1.28,4.21,1.66,6.38.3,1.69.24,3.45.33,5.18.18.03.35.05.53.08Zm-1.63,1.61c-.36-4.32.13-8.61-2.09-12.88-2.27,2.29-2.83,4.88-3.24,7.43-.97,5.94-2.68,5.82,5.33,5.44Zm-.11,4.29c-1.58,0-2.82-.11-4.04.04-.75.09-2.11.63-2.08.84.17,1.6-.84,3.62,1.12,4.67,1.11.6,2.42.82,3.84,1.27.38-2.26.74-4.35,1.16-6.82Z"/>
    <path class="cls-4" d="m261.09,318.42c.85,1.06,1.61,1.94,2.28,2.88.2.28.31.85.16,1.1-2.14,3.59-4.34,7.15-6.79,11.15-.75-3.44,1.48-10.8,4.35-15.14Z"/>
    <path class="cls-4" d="m270.83,308.99c-1.54,2.9-3.08,5.81-4.62,8.71-.24-.1-.39-.12-.46-.21-2.72-3.19-2.76-3.45.39-6.27,1.23-1.11,2.74-1.91,4.13-2.85.19.2.38.41.57.61Z"/>
    <path class="cls-4" d="m300.79,325.17c0,3.36.17,6.72-.04,10.07-.29,4.53-1.25,9-4.19,12.58-1.28,1.55-3.27,2.73-5.17,3.49-1.82.73-3.3-.52-3.35-2.53-.04-1.57.04-3.22.5-4.71,2.22-7.3,6.82-13.17,11.39-19.06.29.05.57.11.86.16Z"/>
    <path class="cls-4" d="m321.62,318.49c0,3.36.17,6.73-.04,10.07-.29,4.54-1.4,8.88-4.12,12.65-1.96,2.72-4.5,3.88-6.74,3.19.68-3.15,1.37-6.3,2.05-9.45.04-.2.12-.42.09-.61-.84-7.09,4.71-10.93,7.81-16.02.32.06.64.12.96.17Z"/>
    <path class="cls-4" d="m316.23,305.29c1.02,2.01,1.8,3.51,2.52,5.04.12.25.04.73-.14.96-2.29,3-4.61,5.97-7.12,9.21-.62-2.23-1.18-4.12-1.66-6.03-.11-.43-.1-1.06.14-1.37,1.93-2.48,3.93-4.91,6.26-7.8Z"/>
    <path class="cls-4" d="m155.96,229.54c-9.09,4.54-18.69,6.26-29.03,6.33.75-3.56,1.68-6.76,3.49-9.63.33-.52,1.29-.86,1.99-.9,7.99-.55,15.73.54,23.13,3.73.11.05.18.2.43.47Z"/>
    <path class="cls-4" d="m116.58,235.52c-1.44-1.11-3.08-1.77-3.3-2.74-.18-.83,1.19-2.11,2.05-3.02.58-.61,1.46-.93,2.8-1.74-.55,2.64-.97,4.67-1.56,7.51Z"/>
    <path class="cls-4" d="m384.87,233.35c2.23-2.13,4.46-4.26,6.69-6.39.21.21.41.43.62.64-2.23,2.13-4.46,4.26-6.69,6.38-.21-.21-.42-.43-.62-.64Z"/>
    <path class="cls-4" d="m335.54,241c.81-1.47,1.56-2.5,1.96-3.64.89-2.56-.02-5.4-2.04-6.92-2.02-1.53-4.29-1.53-6.8-.09-.49.28-1.17.55-1.68.44-4.66-.95-9.3-1.98-14.12-3.03,1.09-5.43,6.14-9.16,7.71-14.82-.46-.04-.94-.08-1.41-.13-.02-.12-.06-.22-.04-.23,2.42-1.44.83-4.04,1.74-6.02,1.84-4.01,3.05-8.3,4.64-12.42.28-.74,1.03-1.6,1.75-1.83,3.75-1.22,7.53-2.39,11.38-3.25.97-.22,2.47.47,3.26,1.23,2.35,2.23,4.47,4.69,7.24,7.04-.24-3.01-.48-6.03-.74-9.23,3.64-.22,7.08.2,10.03,2.5,2.08,1.63,2.36,4.48.75,7.38-2.57,4.63-6.45,7.88-11,10.45-6.24,3.52-13.16,5.02-19.96,6.87-1.59.43-2.99.9-2.94,2.87.06,2.06,1.56,2.57,3.24,2.83,3.63.55,7.32.82,10.85,1.74,2.69.7,5.32,1.99,7.68,3.47,2.6,1.64,3.09,4.48,1.58,7.13-2.06,3.62-5.29,6.06-8.91,7.86-1.05.52-2.65-.09-4.16-.19Z"/>
    <path class="cls-4" d="m312.07,248.72h-6.48c1.43-4.34,2.86-8.46,4.15-12.63.68-2.22,2.06-3.22,4.32-3,2.62.25,5.23.57,7.84.87,2.75.31,4.79,1.34,4.46,4.91-4.03-.81-8.12-1.64-12.61-2.54-.35,2.07-.75,4.07-1.02,6.09-.28,2.05-.43,4.12-.65,6.31Z"/>
    <path class="cls-4" d="m300.98,236.08c-1.16,4.2-1.84,8.22,1.14,12.22-2.84-.36-5.13-1.2-7.02-2.98-1.11-1.04-1.22-2.31-.57-3.6,1.37-2.68,3.61-4.41,6.45-5.63Z"/>
    <path class="cls-4" d="m318.23,239.41c-.46,3.08-.87,5.86-1.31,8.85-.81.13-1.65.26-2.92.46.41-3.45.78-6.6,1.17-9.96,1.21.26,2.05.44,3.06.65Z"/>
    <path class="cls-4" d="m324.8,240.74c1.45.31,2.57.56,3.65.79.08,4.23-.27,4.66-4.73,5.51.36-2.08.69-4.05,1.08-6.3Z"/>
    <path class="cls-4" d="m318.97,247.75c.38-2.55.77-5.11,1.19-7.91.99.2,1.75.36,2.69.55-.39,2.21-.59,4.28-1.18,6.23-.21.68-1.36,1.08-2.08,1.6-.2-.16-.41-.33-.61-.49Z"/>
    <path class="cls-4" d="m335.4,243.42c-1.01.4-2.01.8-3.36,1.33.16-.93.27-1.55.42-2.37,1.12.22,2.04.4,2.97.58,0,.15-.01.3-.02.45Z"/>
    <path class="cls-4" d="m180.79,233.31c2.23-2.11,4.47-4.22,6.7-6.33.2.21.4.42.6.63l-6.69,6.38c-.2-.23-.4-.45-.61-.68Z"/>
    <path class="cls-4" d="m271.68,161.51c-8.01.37-6.3.5-5.33-5.44.42-2.55.98-5.14,3.24-7.43,2.22,4.27,1.73,8.56,2.09,12.88Z"/>
    <path class="cls-4" d="m271.57,165.8c-.42,2.47-.78,4.56-1.16,6.82-1.42-.45-2.74-.67-3.84-1.27-1.95-1.05-.94-3.08-1.12-4.67-.02-.22,1.33-.75,2.08-.84,1.21-.14,2.45-.04,4.04-.04Z"/>
  </g>
</svg>